<svg version="1.1" xmlns="http://www.w3.org/2000/svg" viewBox="0 0 825 685" width="825" height="685">
  <!-- svg-source:excalidraw -->
  
  <defs>
    <style>
      @font-face {
        font-family: "Virgil";
        src: url("https://excalidraw.com/Virgil.woff2");
      }
      @font-face {
        font-family: "Cascadia";
        src: url("https://excalidraw.com/Cascadia.woff2");
      }
    </style>
  </defs>
  <rect x="0" y="0" width="825" height="685" fill="#ffffff"></rect><g stroke-linecap="round" transform="translate(133.19347449584427 141.8713850295618) rotate(0 20.69815466649385 21.915693176287647)"><path d="M1.98 1.82 C10.78 1.42, 18.26 0.26, 43.15 0.78 M-0.57 0.96 C16.05 -1.15, 30.91 -0.49, 40.75 -0.46 M41.86 0.04 C39.98 16.26, 40.99 30.7, 43 43.46 M41.02 0.89 C41.99 10.62, 41.8 19.35, 41.06 44.19 M39.51 43.74 C31.29 43.22, 20.67 45.55, -1.15 42.9 M41.33 43.32 C31.89 42.91, 23.08 43.41, -0.52 43.84 M-0.44 43.86 C-2 29.12, 0.3 16.72, -0.72 0.75 M0.5 43.64 C0.07 32.54, 0.19 23.62, -0.68 0.32" stroke="#000000" stroke-width="1" fill="none"></path></g><g stroke-linecap="round" transform="translate(174.58978382882367 141.8713850295618) rotate(0 20.69815466649385 21.915693176287647)"><path d="M1.82 1.45 C14.96 -0.81, 26.97 1.34, 42.18 1.29 M0.96 0.95 C14.92 0.95, 31.38 -0.41, 40.93 0.58 M41.44 -1.74 C41.89 15.68, 40.64 34.41, 41.03 42.44 M42.29 0.26 C41.59 16.6, 40.22 32.73, 41.76 43.46 M41.31 44.61 C24.15 44.48, 9.92 42.29, -0.93 42.4 M40.88 43.79 C31.93 44.42, 23.59 43.29, 0.01 43.8 M0.03 42.17 C-1.74 27.95, -1.14 10.08, 0.75 -1.25 M-0.19 44.15 C-0.6 28.67, 0.88 11.96, 0.32 0.2" stroke="#000000" stroke-width="1" fill="none"></path></g><g stroke-linecap="round" transform="translate(216.0418970101781 141.8713850295618) rotate(0 20.69815466649385 21.915693176287647)"><path d="M1.45 1.78 C15.59 0.24, 33.72 0.41, 42.69 1.64 M0.95 -0.89 C15.76 -0.62, 29.45 -0.86, 41.98 0.74 M39.65 0.57 C40.77 11.71, 43.1 24.4, 40 45.37 M41.65 0.52 C41.3 8.97, 40.9 19.97, 41.03 44.83 M42.17 43.14 C29.24 45.45, 13.85 42.88, -1.43 42.1 M41.35 43.2 C32.45 43.48, 21.75 43.63, -0.03 44.6 M-1.66 42.12 C0.73 29.34, -0.62 17.82, -1.25 1.12 M0.32 42.95 C0.21 34.1, -0.9 23.48, 0.2 -0.18" stroke="#000000" stroke-width="1" fill="none"></path></g><g stroke-linecap="round" transform="translate(257.4382063431766 141.8713850295618) rotate(0 20.69815466649385 21.915693176287647)"><path d="M1.78 -0.4 C17.12 1.45, 33.8 0.99, 43.03 1.27 M-0.89 0.71 C9.83 -1.04, 19.65 0.18, 42.14 -0.18 M41.97 -0.73 C40.73 15.76, 41.04 26.93, 42.94 42.3 M41.92 0.06 C40.95 11.17, 42.15 22.63, 42.4 44.02 M40.7 44.87 C34.53 42.84, 23.45 42.57, -1.73 42.45 M40.76 44.45 C29.1 43.3, 17.09 43.78, 0.77 43.88 M-1.71 44.47 C-1.12 30.92, 0.74 18.2, 1.12 -1.28 M-0.88 44.26 C0.68 27.79, 0.4 13.32, -0.18 0.79" stroke="#000000" stroke-width="1" fill="none"></path></g><g stroke-linecap="round" transform="translate(299.24036184608747 141.8713850295618) rotate(0 20.69815466649385 21.915693176287647)"><path d="M-0.4 0.61 C17.93 0.41, 33.65 1.27, 42.67 -1.14 M0.71 -0.23 C15.74 -0.1, 33.34 1.11, 41.22 0.23 M40.67 -0.68 C42.62 12.87, 39.62 28.02, 39.87 43.08 M41.46 -0.84 C41.17 17.41, 41.14 35.09, 41.58 42.89 M42.44 45.47 C28 42.75, 15.49 41.95, -1.38 43.7 M42.01 43.69 C30.59 43.58, 20.79 44.34, 0.05 43.61 M0.64 42.72 C-0.36 31.36, -0.89 18.5, -1.28 1.01 M0.43 44.43 C-0.82 31.82, 0.06 19.01, 0.79 -0.03" stroke="#000000" stroke-width="1" fill="none"></path></g><g stroke-linecap="round" transform="translate(340.6366711790796 141.8713850295618) rotate(0 20.69815466649385 21.915693176287647)"><path d="M0.61 1.75 C16.21 1.38, 32.48 1.35, 40.26 1.91 M-0.23 -0.64 C15.89 0.28, 33.46 -0.47, 41.63 0.02 M40.72 1.6 C41.15 7.94, 43.07 17.14, 40.64 45.61 M40.56 -0.33 C41.99 13.9, 42.63 28.74, 40.45 43.79 M43.03 42.68 C26.44 42.62, 11.61 42.67, -0.13 42.8 M41.26 43.31 C29.17 44.05, 17.7 44.14, -0.22 43.85 M-1.11 43.11 C1.12 33.07, 1.49 23.52, 1.01 -0.38 M0.6 43.15 C0.7 29.49, 0.21 15.54, -0.03 -0.01" stroke="#000000" stroke-width="1" fill="none"></path></g><g stroke-linecap="round" transform="translate(382.0329805120699 141.8713850295618) rotate(0 20.69815466649385 21.915693176287647)"><path d="M1.75 0.78 C17.4 1.51, 33.47 -1.27, 43.31 1.9 M-0.64 -0.46 C9.33 0.84, 17.33 0.33, 41.42 -0.87 M43 -0.37 C39.84 15.95, 39.71 28.07, 43.17 44.34 M41.06 0.36 C41.05 16.45, 41.61 29.95, 41.35 44.22 M40.24 42.9 C28.98 42.44, 18.05 44.04, -1.03 43.74 M40.88 43.84 C31.57 44.54, 21.86 43.55, 0.02 43 M-0.72 44.58 C-1.39 35.55, -1.42 26.05, -0.38 0.64 M-0.68 44.15 C0.01 34.38, 0.6 25.24, -0.01 -0.33" stroke="#000000" stroke-width="1" fill="none"></path></g><g stroke-linecap="round" transform="translate(423.42928984505295 141.8713850295618) rotate(0 20.69815466649385 21.915693176287647)"><path d="M0.78 1.29 C13.23 0.91, 22.05 1.55, 43.3 -1.77 M-0.46 0.58 C16.1 0.09, 30.95 0.29, 40.53 0.29 M41.03 -1.39 C42.79 10.03, 40.5 24.89, 41.91 44.88 M41.76 -0.37 C42.03 13.62, 40.08 26.82, 41.78 43.49 M40.46 42.4 C25.08 42.21, 12.11 42.56, -0.09 42.56 M41.41 43.8 C27.19 43.67, 11.23 43.63, -0.83 42.97 M0.75 42.58 C1.36 28.01, 1.25 14.37, 0.64 -1.77 M0.32 44.03 C-0.44 29.58, -0.3 13.73, -0.33 -0.38" stroke="#000000" stroke-width="1" fill="none"></path></g><g stroke-linecap="round" transform="translate(464.0139068381832 141.8713850295618) rotate(0 20.698154666493906 21.915693176287647)"><path d="M1.29 1.64 C14.96 -1.3, 29.3 1.74, 39.63 1.42 M0.58 0.74 C11.3 0.42, 22.97 -0.68, 41.68 -0.36 M40 1.54 C40.22 10.92, 43.53 23.85, 42.44 43.96 M41.03 1 C41.44 8.53, 41.21 19.34, 41.05 44.35 M39.97 42.1 C24.21 43.51, 8.75 43.55, -1.27 45.07 M41.36 44.6 C29.61 43.62, 17.73 43.01, -0.86 44.15 M-1.25 44.95 C-1.13 34.13, -0.22 23.05, -1.77 0.86 M0.2 43.65 C1.09 28.01, 0.29 11.93, -0.38 -0.31" stroke="#000000" stroke-width="1" fill="none"></path></g><g stroke-linecap="round" transform="translate(505.41021617116803 141.8713850295618) rotate(0 20.698154666493906 21.915693176287647)"><path d="M1.64 1.27 C14.9 1.65, 33.99 -2.04, 42.82 -0.46 M0.74 -0.18 C9.99 -0.22, 18.64 0.05, 41.03 -0.34 M42.94 -1.53 C40.56 18.44, 41.83 34.37, 41.52 42.16 M42.4 0.19 C40.61 11.64, 41.94 23.02, 41.92 44.65 M39.66 42.45 C31.24 42.51, 21.24 42.27, 1.23 43.55 M42.16 43.88 C30.9 43.83, 20.01 42.96, 0.32 43.27 M1.12 42.55 C0.84 31.88, 0.47 18.92, 0.86 1.2 M-0.18 44.62 C-0.17 33.67, -0.47 23.14, -0.31 -0.87" stroke="#000000" stroke-width="1" fill="none"></path></g><g transform="translate(147.00816408943672 116.40799702133347) rotate(0 6.377336857834564 11.726070996663566)"><text x="0" y="16.452141993327153" font-family="Virgil, Segoe UI Emoji" font-size="18.35590686106971px" fill="#000000" text-anchor="start" style="white-space: pre;" direction="ltr">0</text></g><g transform="translate(192.62949681199632 116.29722861786297) rotate(0 2.4686465256133943 11.726070996663566)"><text x="0" y="16.452141993327153" font-family="Virgil, Segoe UI Emoji" font-size="18.355906861069688px" fill="#000000" text-anchor="start" style="white-space: pre;" direction="ltr">1</text></g><g transform="translate(230.09394746836358 116.29722861786297) rotate(0 6.583057401635699 11.726070996663566)"><text x="0" y="16.452141993327153" font-family="Virgil, Segoe UI Emoji" font-size="18.355906861069705px" fill="#000000" text-anchor="start" style="white-space: pre;" direction="ltr">2</text></g><g transform="translate(271.68014549301813 116.29722861786297) rotate(0 6.171616314033486 11.726070996663566)"><text x="0" y="16.452141993327153" font-family="Virgil, Segoe UI Emoji" font-size="18.355906861069695px" fill="#000000" text-anchor="start" style="white-space: pre;" direction="ltr">3</text></g><g transform="translate(313.86207837927475 116.29722861786297) rotate(0 5.9658957702323505 11.726070996663566)"><text x="0" y="16.452141993327153" font-family="Virgil, Segoe UI Emoji" font-size="18.355906861069702px" fill="#000000" text-anchor="start" style="white-space: pre;" direction="ltr">4</text></g><g transform="translate(355.4482764039193 116.29722861786297) rotate(0 5.760175226431215 11.726070996663566)"><text x="0" y="16.452141993327153" font-family="Virgil, Segoe UI Emoji" font-size="18.35590686106969px" fill="#000000" text-anchor="start" style="white-space: pre;" direction="ltr">5</text></g><g transform="translate(396.65469704524446 116.29722861786297) rotate(0 5.9658957702323505 11.726070996663566)"><text x="0" y="16.452141993327153" font-family="Virgil, Segoe UI Emoji" font-size="18.355906861069702px" fill="#000000" text-anchor="start" style="white-space: pre;" direction="ltr">6</text></g><g transform="translate(439.0004498365623 116.29722861786297) rotate(0 4.9372930512267885 11.726070996663566)"><text x="0" y="16.452141993327153" font-family="Virgil, Segoe UI Emoji" font-size="18.355906861069705px" fill="#000000" text-anchor="start" style="white-space: pre;" direction="ltr">7</text></g><g transform="translate(477.49629122135866 116.29722861786297) rotate(0 6.9944984892379125 11.726070996663566)"><text x="0" y="16.452141993327153" font-family="Virgil, Segoe UI Emoji" font-size="18.35590686106967px" fill="#000000" text-anchor="start" style="white-space: pre;" direction="ltr">8</text></g><g transform="translate(520.4117100876692 116.29722861786297) rotate(0 5.55445468263008 11.726070996663566)"><text x="0" y="16.452141993327153" font-family="Virgil, Segoe UI Emoji" font-size="18.355906861069702px" fill="#000000" text-anchor="start" style="white-space: pre;" direction="ltr">9</text></g><g stroke-linecap="round"><g transform="translate(184.68513328776464 238.46904761904796) rotate(0 -26.1851332877647 -22.639866434378632)"><path d="M0 0 C-6.25 -1.99, -28.77 -4.39, -37.5 -11.94 C-46.22 -19.48, -49.89 -39.72, -52.37 -45.28 M0 0 C-6.25 -1.99, -28.77 -4.39, -37.5 -11.94 C-46.22 -19.48, -49.89 -39.72, -52.37 -45.28" stroke="#c92a2a" stroke-width="4" fill="none"></path></g><g transform="translate(184.68513328776464 238.46904761904796) rotate(0 -26.1851332877647 -22.639866434378632)"><path d="M-52.37 -45.28 L-42.16 -34.29 L-54.23 -30.39 L-52.37 -45.28" stroke="none" stroke-width="0" fill="#c92a2a" fill-rule="evenodd"></path><path d="M-52.37 -45.28 C-49.94 -42.67, -47.51 -40.05, -42.16 -34.29 M-52.37 -45.28 C-50.26 -43.01, -48.15 -40.74, -42.16 -34.29 M-42.16 -34.29 C-45.44 -33.23, -48.71 -32.18, -54.23 -30.39 M-42.16 -34.29 C-45.77 -33.13, -49.38 -31.96, -54.23 -30.39 M-54.23 -30.39 C-53.59 -35.5, -52.95 -40.6, -52.37 -45.28 M-54.23 -30.39 C-53.76 -34.09, -53.3 -37.79, -52.37 -45.28 M-52.37 -45.28 C-52.37 -45.28, -52.37 -45.28, -52.37 -45.28 M-52.37 -45.28 C-52.37 -45.28, -52.37 -45.28, -52.37 -45.28" stroke="#c92a2a" stroke-width="4" fill="none"></path></g></g><g stroke-linecap="round"><g transform="translate(189.81486671223536 238.63986643437863) rotate(0 26.1851332877647 -22.639866434378632)"><path d="M0 0 C6.25 -1.99, 28.77 -4.39, 37.5 -11.94 C46.22 -19.48, 49.89 -39.72, 52.37 -45.28 M0 0 C6.25 -1.99, 28.77 -4.39, 37.5 -11.94 C46.22 -19.48, 49.89 -39.72, 52.37 -45.28" stroke="#c92a2a" stroke-width="4" fill="none"></path></g><g transform="translate(189.81486671223536 238.63986643437863) rotate(0 26.1851332877647 -22.639866434378632)"><path d="M52.37 -45.28 L54.23 -30.39 L42.16 -34.29 L52.37 -45.28" stroke="none" stroke-width="0" fill="#c92a2a" fill-rule="evenodd"></path><path d="M52.37 -45.28 C53.09 -39.51, 53.81 -33.75, 54.23 -30.39 M52.37 -45.28 C53.1 -39.45, 53.82 -33.62, 54.23 -30.39 M54.23 -30.39 C51.08 -31.41, 47.93 -32.43, 42.16 -34.29 M54.23 -30.39 C50.2 -31.7, 46.17 -33, 42.16 -34.29 M42.16 -34.29 C45.86 -38.27, 49.56 -42.25, 52.37 -45.28 M42.16 -34.29 C45.86 -38.27, 49.56 -42.26, 52.37 -45.28 M52.37 -45.28 C52.37 -45.28, 52.37 -45.28, 52.37 -45.28 M52.37 -45.28 C52.37 -45.28, 52.37 -45.28, 52.37 -45.28" stroke="#c92a2a" stroke-width="4" fill="none"></path></g></g><g transform="translate(167 248) rotate(0 24 13)"><text x="0" y="18" font-family="Virgil, Segoe UI Emoji" font-size="20px" fill="#000000" text-anchor="start" style="white-space: pre;" direction="ltr">block</text></g><g stroke-linecap="round"><g transform="translate(151.68513328776464 42.46904761904801) rotate(0 0.05969742324765548 30.360133565621368)"><path d="M0 0 C-0.08 4.51, -0.6 16.94, -0.5 27.06 C-0.39 37.18, 0.44 55.11, 0.63 60.72 M0 0 C-0.08 4.51, -0.6 16.94, -0.5 27.06 C-0.39 37.18, 0.44 55.11, 0.63 60.72" stroke="#c92a2a" stroke-width="4" fill="none"></path></g><g transform="translate(151.68513328776464 42.46904761904801) rotate(0 0.05969742324765548 30.360133565621368)"><path d="M0.63 60.72 L-6.24 47.38 L6.43 46.89 L0.63 60.72" stroke="none" stroke-width="0" fill="#c92a2a" fill-rule="evenodd"></path><path d="M0.63 60.72 C-1.3 56.98, -3.22 53.23, -6.24 47.38 M0.63 60.72 C-1.34 56.9, -3.31 53.07, -6.24 47.38 M-6.24 47.38 C-3.38 47.27, -0.53 47.16, 6.43 46.89 M-6.24 47.38 C-2.61 47.24, 1.01 47.1, 6.43 46.89 M6.43 46.89 C4.9 50.54, 3.37 54.18, 0.63 60.72 M6.43 46.89 C4.39 51.75, 2.35 56.62, 0.63 60.72 M0.63 60.72 C0.63 60.72, 0.63 60.72, 0.63 60.72 M0.63 60.72 C0.63 60.72, 0.63 60.72, 0.63 60.72" stroke="#c92a2a" stroke-width="4" fill="none"></path></g></g><g transform="translate(133 10) rotate(0 20.5 13)"><text x="0" y="18" font-family="Virgil, Segoe UI Emoji" font-size="20px" fill="#000000" text-anchor="start" style="white-space: pre;" direction="ltr">slot</text></g><g stroke-linecap="round" transform="translate(128.63277838764884 435.8713850295617) rotate(0 20.69815466649385 21.91569317628762)"><path d="M0 0 C0 0, 0 0, 0 0 M0 0 C0 0, 0 0, 0 0 M-0.56 5.74 C1.1 5.24, 2.58 2.35, 4.34 -0.42 M-0.42 6.18 C1.09 4.52, 2.41 3.5, 5.25 0.66 M1.19 11.76 C2.99 9.24, 3.56 5.7, 9.39 0.69 M-0.55 12.37 C2.66 8.85, 5.73 5.6, 9.86 -0.49 M-1.92 17.57 C5.97 13, 8.84 6.72, 17.14 2.12 M-0.34 18.31 C5.77 11.83, 12.19 5.27, 15.78 1.16 M0.14 24.81 C8.15 14.57, 16.84 4.15, 21.57 -0.9 M1.1 24.21 C6.05 18.17, 11.14 12.59, 21.68 0.71 M1.85 29.75 C5.89 22.72, 15.07 12.75, 24.97 -0.04 M-0.81 31.41 C10.88 19.65, 20.57 8.26, 25.71 -0.27 M-0.88 38.22 C8.3 25.12, 17.46 17.13, 32.02 0.91 M0.42 37.48 C9.32 25.44, 17.74 15.56, 32.42 -0.77 M-0.23 42.59 C10.36 28.56, 23.62 18.98, 38.34 1.01 M0.66 42.62 C13.02 27.42, 25.29 14, 36.77 0.77 M2.41 45.84 C18.16 31.87, 31.38 13.8, 43.34 -0.25 M3.19 46.02 C14.26 32.09, 28.5 17.62, 41.13 1.22 M7.26 45.88 C18.75 29.94, 32.47 13.75, 41.17 6.14 M7.86 45.47 C16 35.16, 26.32 25.29, 41.44 6.16 M12.41 46.61 C23.41 33.41, 33.91 20.04, 42.65 13.67 M12.43 46.69 C22.22 34.12, 33.12 23.56, 41.43 12.13 M17.29 45 C23.57 38.6, 30.05 33.54, 41.7 18.73 M18.34 45.68 C22.95 39.61, 28.8 34.49, 42.18 19.32 M22.78 45.58 C26.7 41.02, 33.79 35.65, 42.77 23.63 M24.05 45.52 C29.21 38.86, 36.01 31.87, 41.84 23.87 M30.2 45.36 C29.96 44.41, 36.11 38.41, 41.1 31.66 M28.21 46.56 C31.67 42, 35.13 38.34, 41.06 31.25 M33.4 45.05 C35.94 43, 37.21 41.09, 42.97 36.7 M34.32 45.55 C37.14 42.1, 40.54 38.74, 42.08 36.92" stroke="#868e96" stroke-width="0.5" fill="none"></path><path d="M-1.68 1.99 C10.14 0.38, 18.04 -0.19, 43.16 0.19 M-0.42 -0.01 C9.6 0.15, 19.76 0.42, 41.91 0.8 M40.46 1.62 C42.79 7.98, 38.99 21.4, 42.51 45.48 M40.93 0.42 C40.95 12.91, 41.52 26.57, 40.99 43.38 M40.73 43.1 C29.02 43.08, 13.1 44.43, 1.95 42 M41.46 43.3 C32.7 44.23, 24.03 44.17, -0.73 42.89 M0.21 42.27 C0.19 26.87, 1 9.26, 1.6 -0.82 M0.82 43.38 C0.67 29.79, 0.45 14.31, 0.98 0.07" stroke="#000000" stroke-width="1" fill="none"></path></g><g stroke-linecap="round" transform="translate(170.02908772062824 435.8713850295617) rotate(0 20.69815466649385 21.91569317628762)"><path d="M0 0 C0 0, 0 0, 0 0 M0 0 C0 0, 0 0, 0 0 M-0.92 6.09 C2.26 3.91, 3.05 1.78, 4.21 -0.01 M-0.48 6.48 C1.48 4.08, 4.07 1.87, 5.28 0.09 M-0.15 12.37 C2.45 7.76, 4.04 5.4, 11.35 -0.8 M0.46 11.98 C3.69 8.23, 7.19 2.84, 10.18 0.27 M-1 19.13 C4.52 12.25, 8.34 10.96, 17.42 2.07 M-0.26 18.14 C4.21 14.01, 8.58 9.63, 16.45 1.12 M0.99 24.04 C6.53 17.17, 11.89 9.2, 20.43 -1.25 M0.39 25 C8.11 15.73, 16.28 6.07, 22.04 -0.08 M-0.72 28.65 C10.35 19.28, 18.5 8.07, 25.92 1.98 M0.94 31.17 C7.88 22.85, 15.17 13.88, 25.68 0.13 M1.09 36.47 C9.46 23.93, 22.99 11.75, 32.9 -0.32 M0.35 37.24 C9.42 24.14, 20.68 13.17, 31.22 -0.08 M0.21 41.49 C8.91 32.31, 22.03 21.27, 37.63 0.95 M0.24 43.36 C12.42 27.9, 26.4 11.75, 37.39 0.76 M2.44 47.63 C14.89 34.96, 23.21 23.14, 40.99 0.97 M2.63 44.92 C12.92 35.08, 22.66 22.31, 42.47 1.47 M7.11 44.39 C19.34 30.12, 31.28 15.93, 42.14 5.53 M6.7 45.46 C15.94 36.1, 25.64 24.53, 42.16 6.98 M13.88 45.36 C21.39 35.64, 28.7 27.47, 43.01 13.3 M13.95 45.36 C20.99 37, 30.04 25.75, 41.47 11.88 M16.89 46.6 C25.13 38.01, 34.73 26.47, 41.41 17.68 M17.57 45.44 C23.6 39.13, 30.54 33.31, 42 18.39 M23.51 44.57 C30.11 40.3, 35.89 32.23, 41.06 25.17 M23.46 45.14 C27.38 41.64, 30.96 36.9, 41.31 24 M27.92 44.36 C34.13 43.17, 35.27 36.86, 42.43 29.82 M29.12 45.92 C31.16 42.85, 34.11 38.44, 42.02 30.15 M33.64 45.82 C36.52 41.99, 39.54 39.5, 42.22 37.58 M34.15 45.72 C37.11 42.67, 40.18 38.55, 42.45 36.51" stroke="#ced4da" stroke-width="0.5" fill="none"></path><path d="M1.99 0.96 C15.35 0.01, 29.45 2.11, 41.59 -1.23 M-0.01 -0.28 C11.7 0.19, 23.53 0.69, 42.2 -0.74 M43.01 1.81 C39.91 7.03, 43.45 19.17, 43.04 43.83 M41.82 -0.03 C40.82 9.57, 41.32 17.66, 40.95 44.19 M40.67 45.35 C25.33 43.19, 11.64 45.64, -1.83 41.95 M40.87 43.67 C30.03 43.56, 18.07 43.12, -0.94 44.74 M-1.57 44.07 C-0.07 31.26, -0.57 18.2, -0.82 0.61 M-0.45 44.75 C0.41 28.86, -0.58 13.48, 0.07 0.27" stroke="#000000" stroke-width="1" fill="none"></path></g><g stroke-linecap="round" transform="translate(211.48120090198267 435.8713850295617) rotate(0 20.69815466649385 21.91569317628762)"><path d="M0 0 C0 0, 0 0, 0 0 M0 0 C0 0, 0 0, 0 0 M-0.56 7.19 C0.91 4.38, 2.44 1.85, 4.62 1.14 M-0.18 6.09 C1.75 4.42, 3.86 2.31, 4.72 0.04 M0.46 12.06 C1.76 7.6, 5.32 5.29, 9.87 0.81 M0.07 11.9 C3.87 7.9, 6.01 4.02, 10.94 -0.42 M0.56 19.18 C3.51 13.07, 12.03 8.26, 17.36 -0.71 M-0.42 18.71 C3.24 15.39, 6.65 11.72, 16.41 0.47 M0.22 23.67 C6.61 15.84, 11.89 10.17, 20.08 1.49 M1.18 23.92 C6.73 17.56, 11.91 11.69, 21.25 0.39 M-1.83 31.84 C7.87 21.04, 15.77 10.33, 27.94 -0.32 M0.7 31.08 C6.63 24.04, 11.9 15.65, 26.09 0.72 M-0.67 35.91 C12 23.8, 25.01 8.89, 31.68 0.39 M0.11 36.29 C10.17 24.04, 22.41 10.26, 31.92 -0.41 M-0.89 41.08 C9.68 34.68, 18.38 24.04, 37.57 1.47 M0.98 41.62 C12.33 28.98, 23.01 16.32, 37.38 -0.07 M4.23 47.61 C14.35 33.15, 25.31 20.52, 42.22 -0.4 M1.52 46.39 C13.79 33.77, 23.18 21.46, 42.72 1.28 M5.62 45.11 C14.08 35.09, 22.62 27.59, 41.52 5.46 M6.69 45.78 C19.04 33.68, 29.2 20.35, 42.98 6.14 M12.62 45.65 C19.82 36.1, 28.55 29.91, 42.64 12.6 M12.62 45.23 C23.62 34.58, 31.7 23.35, 41.22 13.3 M18.49 44.74 C27.92 36.57, 34.39 27.41, 40.36 17.95 M17.33 45.69 C22.77 41.12, 28.7 34.89, 41.07 19.45 M22.5 45.98 C31.24 38.86, 36.17 31.36, 42.6 22.76 M23.07 45.53 C27.73 40.98, 31.15 36.16, 41.43 24.5 M26.92 47.81 C33.15 41.64, 34.28 39.44, 40.59 29.74 M28.47 45.59 C33.17 40.56, 36.52 36.52, 40.92 32 M34.41 44.92 C37.13 41.47, 41.16 38.92, 43.1 37.83 M34.31 45.5 C37.72 42.18, 40.04 39.31, 42.03 36.83" stroke="#ced4da" stroke-width="0.5" fill="none"></path><path d="M0.96 0.68 C15.13 -0.3, 32.68 -0.22, 40.17 -0.42 M-0.28 0.14 C12.38 0.42, 25.24 0.81, 40.65 -0.94 M43.2 -1.91 C39.19 19.04, 42.31 36.46, 41.4 41.95 M41.36 -0.24 C41.73 10.05, 40.79 19.14, 41.75 44.46 M42.92 42.81 C25.77 44.01, 13.09 41.85, -1.88 43.58 M41.23 44.35 C29.88 44.07, 18.22 42.67, 0.9 43.94 M0.24 43.99 C1 28.09, 1.55 12.2, 0.61 1.15 M0.92 44.27 C0.34 29.85, 0.62 17.03, 0.27 -0.66" stroke="#000000" stroke-width="1" fill="none"></path></g><g stroke-linecap="round" transform="translate(252.87751023498117 435.8713850295617) rotate(0 20.69815466649385 21.91569317628762)"><path d="M0 0 C0 0, 0 0, 0 0 M0 0 C0 0, 0 0, 0 0 M0.53 5.89 C1.01 4.19, 1.77 2.88, 5.77 0.88 M-0.57 6.46 C1.34 5.08, 2.8 2.98, 4.67 0.4 M0.15 10.49 C3.28 6.36, 8.56 2.42, 11.48 0.15 M0 12.41 C2 8.69, 4.14 7.17, 10.25 0.23 M0.61 16.67 C3.85 16.1, 8.37 12.51, 14.58 -1.49 M0.14 18.47 C5 13.6, 9.49 9.2, 15.76 0.02 M-0.15 24.76 C4.68 17.3, 11.68 8.72, 22.82 -0.63 M0.11 25.04 C8.37 15.04, 17.13 5.35, 21.72 0.23 M1.36 29.97 C10.83 17.61, 20.37 8.73, 25.64 -1.06 M0.6 30.77 C6.28 23.15, 10.64 16.92, 26.68 1.18 M-1.23 36.51 C9.67 27.13, 17.78 16.86, 32.38 0.86 M-0.84 36.36 C11.58 23.69, 22.5 9.58, 31.59 -0.83 M-1.3 43.63 C12.25 32.26, 21.58 19.59, 38.09 0.57 M-0.76 43.33 C12.86 27.24, 26.46 12.98, 36.56 -0.04 M4.22 47.07 C13.64 33.66, 24.91 19.16, 40.85 0.14 M2.99 46.64 C17.4 28.83, 32.12 13.7, 42.52 -0.06 M6.34 44.72 C15.67 33.95, 27.51 22.76, 41.46 6.78 M7.01 46.63 C19.7 32.25, 31.12 20.32, 42.14 5.8 M12.91 45.11 C19.4 37.81, 29.27 29.04, 41.94 13.21 M12.5 46.67 C19.31 37.82, 25.58 29.99, 42.64 13.09 M16.64 47.82 C23.9 39.12, 30.17 30.76, 40.63 17.37 M17.59 45.83 C26.51 38.1, 33.76 28.23, 42.13 19.23 M23.91 47.37 C28.11 41.29, 31.93 35.82, 40.2 22.91 M23.46 45.99 C29.42 38.71, 35.1 31.33, 41.93 24.14 M30.37 47.49 C32.78 39.92, 39.15 33.78, 40.51 31.57 M28.15 46.28 C31.23 41.7, 35.3 37.85, 42.77 31.89 M33.51 45.47 C35.23 44.54, 37.82 42.7, 43.35 37.58 M34.1 46.2 C36.4 43.01, 39.15 40.35, 42.35 36.21" stroke="#ced4da" stroke-width="0.5" fill="none"></path><path d="M0.68 -0.34 C9.07 1.56, 18.09 -1.43, 40.98 -0.03 M0.14 0.01 C11.1 0.63, 22.17 -0.63, 40.46 0.97 M39.49 -2 C43.38 12.21, 43.4 22.18, 39.52 42.3 M41.15 0.54 C41.84 10.69, 41.13 22.55, 42.03 44.49 M40.37 43.33 C30.68 46.09, 17.48 42.27, -0.26 43.25 M41.92 43.54 C29.16 43.03, 15.08 44.67, 0.11 44.35 M0.16 44.88 C0 31.82, -0.48 17.23, 1.15 0.13 M0.44 44.53 C-0.35 28.05, 0.26 10.58, -0.66 0.5" stroke="#000000" stroke-width="1" fill="none"></path></g><g stroke-linecap="round" transform="translate(294.67966573789204 435.8713850295617) rotate(0 20.69815466649385 21.91569317628762)"><path d="M0 0 C0 0, 0 0, 0 0 M0 0 C0 0, 0 0, 0 0 M-0.77 6.24 C0.26 4.25, 1.68 4.5, 5.51 0.04 M-0.2 6.6 C1.27 5.26, 2.02 3.17, 5.03 0.62 M-1.42 11.32 C1.83 9.35, 5.28 6.06, 10.81 -1.4 M0.5 11.7 C2.95 7.49, 7.61 3.44, 10.89 -0.75 M-1.89 19.02 C5.37 15.53, 9.64 8.05, 13.8 -0.11 M-0.1 19.16 C4.6 14.03, 9.76 8.15, 15.31 0.26 M0.94 22.42 C7.64 15.17, 13.21 9.44, 20.7 1.61 M1.22 24.16 C7.03 17.35, 13.16 9.48, 21.56 0.85 M-0.51 30.9 C5.92 22.02, 15.8 13.78, 24.89 -1.33 M0.29 31.3 C9.58 17.89, 20.27 7.01, 27.14 -0.02 M-0.63 38.41 C11.75 24.47, 23.22 10.37, 32.86 1.25 M-0.77 37.12 C11.72 23.07, 22.81 10.1, 31.16 -0.29 M1.25 44.3 C12.97 30.7, 23.36 18.33, 37.19 1.29 M0.95 42.36 C11.07 30.26, 23.08 16.31, 36.58 0.21 M3.67 45.39 C15.29 31.24, 25.86 17.64, 41.38 2 M3.24 46.32 C14.51 32.16, 28.4 18.06, 41.19 0.5 M5.94 44.33 C16.54 35.1, 26.67 23.18, 42.78 6.99 M7.85 46.44 C14.68 37.48, 23.91 28.62, 41.8 5.9 M12.38 44.64 C23.6 35.71, 33.33 23.44, 42.55 11.25 M13.94 45.69 C23.77 32.82, 34.6 21.3, 42.43 12.24 M19.71 45.74 C23.66 39.6, 27.96 32.33, 40.05 19.5 M17.73 46.86 C24.56 39.96, 29.24 33.43, 41.91 18.56 M25.3 45.54 C29.82 38.67, 34.93 31.72, 40.35 25.29 M23.92 45.38 C28.57 39.37, 33.1 34.3, 41.57 25.42 M30.05 45.27 C31.51 42.74, 34.39 36.92, 42.35 30.02 M28.84 45.5 C32.4 41.34, 36.68 37.01, 42.67 30.27 M34.06 44.87 C36.97 43.66, 38.97 42.64, 43.1 36.6 M34.79 45.5 C36.26 43.67, 38.25 41.23, 41.73 36.43" stroke="#ced4da" stroke-width="0.5" fill="none"></path><path d="M-0.34 0.12 C18.3 0.05, 31.85 -0.56, 41.37 -0.84 M0.01 0.42 C12.89 0.74, 24 -1, 42.37 -0.47 M39.4 1.63 C42.91 18.34, 41.79 31.51, 39.87 42.89 M41.94 0.26 C40.98 14.54, 41.74 30.61, 42.05 43.5 M40.9 44.16 C32.44 41.79, 17.7 43.36, -0.58 43.96 M41.1 44.29 C30.44 43.11, 21.85 44.15, 0.51 43.94 M1.05 43.49 C1.55 33.29, 0.56 25.55, 0.13 1.65 M0.7 43.28 C0.57 32.74, -0.14 20.85, 0.5 -0.32" stroke="#000000" stroke-width="1" fill="none"></path></g><g stroke-linecap="round" transform="translate(336.07597507088417 435.8713850295617) rotate(0 20.69815466649385 21.91569317628762)"><path d="M0.12 1.76 C14.59 -1.16, 28.38 0.04, 40.56 -0.02 M0.42 0.51 C12.07 -0.75, 21.59 0.97, 40.93 0.81 M43.03 1.12 C42.62 17.12, 39.1 32.69, 40.46 44.67 M41.66 -0.4 C40.84 13.36, 41.92 26.65, 41.06 43.47 M41.72 45.78 C23.99 41.85, 10 43.15, 0.13 42.77 M41.85 43.1 C28.72 44.61, 18.03 44.22, 0.1 43.05 M-0.34 45.43 C-0.86 30.78, 1.11 16.63, 1.65 -0.91 M-0.55 44.81 C-0.13 26.92, -0.86 9.97, -0.32 -0.27" stroke="#000000" stroke-width="1" fill="none"></path></g><g stroke-linecap="round" transform="translate(377.4722844038745 435.8713850295617) rotate(0 20.69815466649385 21.91569317628762)"><path d="M1.76 0.19 C12.6 -0.44, 27.64 -0.86, 41.37 -0.56 M0.51 0.8 C12.26 -1.11, 26.98 -0.64, 42.21 0.9 M42.51 1.65 C40.96 7.09, 39.43 17, 42.24 43.76 M40.99 -0.45 C41.99 12.71, 42.29 23.82, 41.03 44.59 M43.34 42 C29.22 43.64, 20.22 44.03, -1.06 43.5 M40.66 42.89 C27.73 44.13, 12.76 44.12, -0.78 43.95 M1.6 43.01 C0.38 31.49, -0.1 18.5, -0.91 1.84 M0.98 43.9 C-0.04 28.08, 0.19 13.33, -0.27 -0.37" stroke="#000000" stroke-width="1" fill="none"></path></g><g stroke-linecap="round" transform="translate(418.8685937368575 435.8713850295617) rotate(0 20.69815466649385 21.91569317628762)"><path d="M0.19 -1.23 C11.31 -0.39, 22.61 -0.39, 40.84 0.28 M0.8 -0.74 C11.53 0.76, 24.47 0.6, 42.3 -0.95 M43.04 0 C39.88 7.25, 40.82 18.39, 41.33 43.34 M40.95 0.36 C42.14 16.17, 41.18 30.67, 42.16 43.32 M39.56 41.95 C29.76 43.66, 18.76 43.18, -0.33 44.87 M40.46 44.74 C30.31 44.04, 19.12 42.74, 0.12 43.91 M-0.82 44.44 C1.22 28.52, 1.72 12.04, 1.84 0.88 M0.07 44.1 C-0.42 28.12, -0.08 11.15, -0.37 -0.13" stroke="#000000" stroke-width="1" fill="none"></path></g><g stroke-linecap="round" transform="translate(459.45321072998763 435.8713850295617) rotate(0 20.698154666493906 21.91569317628762)"><path d="M-1.23 -0.42 C12.63 -0.88, 25.3 -0.6, 41.68 0.03 M-0.74 -0.94 C15.12 -0.8, 29.11 0.57, 40.44 -1 M41.4 -1.88 C40.11 15.79, 42.48 33.39, 40.91 44.91 M41.75 0.63 C41.87 13.96, 40.85 29.34, 40.88 43.58 M39.52 43.58 C27.73 43.58, 14.15 43.12, 1.04 43.24 M42.3 43.94 C27.61 43.55, 12 43.56, 0.08 44.35 M0.61 44.98 C-0.22 33.07, -1.26 20.86, 0.88 1.4 M0.27 43.17 C0.07 32.76, -0.7 21.96, -0.13 -0.36" stroke="#000000" stroke-width="1" fill="none"></path></g><g stroke-linecap="round" transform="translate(500.8495200629725 435.8713850295617) rotate(0 20.698154666493906 21.91569317628762)"><path d="M-0.42 -0.03 C15.23 0.23, 31.57 0.54, 41.42 0.84 M-0.94 0.97 C14.07 1.12, 29.98 -0.65, 40.4 0.82 M39.52 -1.53 C40.82 16.44, 41.69 30.7, 42.48 44.35 M42.03 0.65 C40.87 11.01, 41.96 22.24, 41.15 43.99 M41.14 43.25 C25.08 42.38, 8.17 44.48, -0.59 44.74 M41.5 44.35 C32.12 43.42, 22.76 44.28, 0.52 43.66 M1.15 43.96 C1.83 26.27, 2.02 11.41, 1.4 -1.09 M-0.66 44.33 C-0.35 26.13, -0.4 8.85, -0.36 -0.58" stroke="#000000" stroke-width="1" fill="none"></path></g><g transform="translate(142.4474679812413 410.40799702133336) rotate(0 6.377336857834564 11.726070996663566)"><text x="0" y="16.452141993327153" font-family="Virgil, Segoe UI Emoji" font-size="18.35590686106971px" fill="#000000" text-anchor="start" style="white-space: pre;" direction="ltr">0</text></g><g transform="translate(188.0688007038009 410.29722861786286) rotate(0 2.4686465256133943 11.726070996663566)"><text x="0" y="16.452141993327153" font-family="Virgil, Segoe UI Emoji" font-size="18.355906861069688px" fill="#000000" text-anchor="start" style="white-space: pre;" direction="ltr">1</text></g><g transform="translate(225.53325136016815 410.29722861786286) rotate(0 6.583057401635699 11.726070996663566)"><text x="0" y="16.452141993327153" font-family="Virgil, Segoe UI Emoji" font-size="18.355906861069705px" fill="#000000" text-anchor="start" style="white-space: pre;" direction="ltr">2</text></g><g transform="translate(267.1194493848227 410.29722861786286) rotate(0 6.171616314033486 11.726070996663566)"><text x="0" y="16.452141993327153" font-family="Virgil, Segoe UI Emoji" font-size="18.355906861069695px" fill="#000000" text-anchor="start" style="white-space: pre;" direction="ltr">3</text></g><g transform="translate(309.3013822710793 410.29722861786286) rotate(0 5.9658957702323505 11.726070996663566)"><text x="0" y="16.452141993327153" font-family="Virgil, Segoe UI Emoji" font-size="18.355906861069702px" fill="#000000" text-anchor="start" style="white-space: pre;" direction="ltr">4</text></g><g transform="translate(350.88758029572386 410.29722861786286) rotate(0 5.760175226431215 11.726070996663566)"><text x="0" y="16.452141993327153" font-family="Virgil, Segoe UI Emoji" font-size="18.35590686106969px" fill="#000000" text-anchor="start" style="white-space: pre;" direction="ltr">5</text></g><g transform="translate(392.09400093704903 410.29722861786286) rotate(0 5.9658957702323505 11.726070996663566)"><text x="0" y="16.452141993327153" font-family="Virgil, Segoe UI Emoji" font-size="18.355906861069702px" fill="#000000" text-anchor="start" style="white-space: pre;" direction="ltr">6</text></g><g transform="translate(434.4397537283669 410.29722861786286) rotate(0 4.9372930512267885 11.726070996663566)"><text x="0" y="16.452141993327153" font-family="Virgil, Segoe UI Emoji" font-size="18.355906861069705px" fill="#000000" text-anchor="start" style="white-space: pre;" direction="ltr">7</text></g><g transform="translate(472.9355951131631 410.29722861786286) rotate(0 6.9944984892379125 11.726070996663566)"><text x="0" y="16.452141993327153" font-family="Virgil, Segoe UI Emoji" font-size="18.35590686106967px" fill="#000000" text-anchor="start" style="white-space: pre;" direction="ltr">8</text></g><g transform="translate(515.8510139794737 410.29722861786286) rotate(0 5.55445468263008 11.726070996663566)"><text x="0" y="16.452141993327153" font-family="Virgil, Segoe UI Emoji" font-size="18.355906861069702px" fill="#000000" text-anchor="start" style="white-space: pre;" direction="ltr">9</text></g><g stroke-linecap="round"><g transform="translate(273.06667753164174 487.6398664343785) rotate(180 -0.05969742324765548 30.360133565621368)"><path d="M0 0 C0.08 4.51, 0.6 16.94, 0.5 27.06 C0.39 37.18, -0.44 55.11, -0.63 60.72 M0 0 C0.08 4.51, 0.6 16.94, 0.5 27.06 C0.39 37.18, -0.44 55.11, -0.63 60.72" stroke="#c92a2a" stroke-width="4" fill="none"></path></g><g transform="translate(273.06667753164174 487.6398664343785) rotate(180 -0.05969742324765548 30.360133565621368)"><path d="M-0.63 60.72 L-6.43 46.89 L6.24 47.38 L-0.63 60.72" stroke="none" stroke-width="0" fill="#c92a2a" fill-rule="evenodd"></path><path d="M-0.63 60.72 C-2.08 57.27, -3.53 53.82, -6.43 46.89 M-0.63 60.72 C-2.64 55.94, -4.64 51.15, -6.43 46.89 M-6.43 46.89 C-2.91 47.03, 0.6 47.16, 6.24 47.38 M-6.43 46.89 C-3.69 47, -0.94 47.1, 6.24 47.38 M6.24 47.38 C4.69 50.38, 3.15 53.39, -0.63 60.72 M6.24 47.38 C3.62 52.46, 1.01 57.54, -0.63 60.72 M-0.63 60.72 C-0.63 60.72, -0.63 60.72, -0.63 60.72 M-0.63 60.72 C-0.63 60.72, -0.63 60.72, -0.63 60.72" stroke="#c92a2a" stroke-width="4" fill="none"></path></g></g><g transform="translate(253 553) rotate(0 24.5 13)"><text x="0" y="18" font-family="Virgil, Segoe UI Emoji" font-size="20px" fill="#000000" text-anchor="start" style="white-space: pre;" direction="ltr">write</text></g><g transform="translate(10 591) rotate(0 402.5 13)"><text x="0" y="18" font-family="Virgil, Segoe UI Emoji" font-size="20px" fill="#000000" text-anchor="start" style="white-space: pre;" direction="ltr">write(shared): points to the element after the block that the writer has written</text></g><g stroke-linecap="round"><g transform="translate(187.43513328776476 533.8743902439026) rotate(0 -26.1851332877647 -22.639866434378632)"><path d="M0 0 C-6.25 -1.99, -28.77 -4.39, -37.5 -11.94 C-46.22 -19.48, -49.89 -39.72, -52.37 -45.28 M0 0 C-6.25 -1.99, -28.77 -4.39, -37.5 -11.94 C-46.22 -19.48, -49.89 -39.72, -52.37 -45.28" stroke="#c92a2a" stroke-width="4" fill="none"></path></g><g transform="translate(187.43513328776476 533.8743902439026) rotate(0 -26.1851332877647 -22.639866434378632)"><path d="M-52.37 -45.28 L-42.16 -34.29 L-54.23 -30.39 L-52.37 -45.28" stroke="none" stroke-width="0" fill="#c92a2a" fill-rule="evenodd"></path><path d="M-52.37 -45.28 C-50.12 -42.86, -47.87 -40.44, -42.16 -34.29 M-52.37 -45.28 C-50.25 -43, -48.13 -40.71, -42.16 -34.29 M-42.16 -34.29 C-46.11 -33.02, -50.06 -31.74, -54.23 -30.39 M-42.16 -34.29 C-45.89 -33.09, -49.62 -31.88, -54.23 -30.39 M-54.23 -30.39 C-53.52 -36.05, -52.82 -41.71, -52.37 -45.28 M-54.23 -30.39 C-53.69 -34.66, -53.16 -38.92, -52.37 -45.28 M-52.37 -45.28 C-52.37 -45.28, -52.37 -45.28, -52.37 -45.28 M-52.37 -45.28 C-52.37 -45.28, -52.37 -45.28, -52.37 -45.28" stroke="#c92a2a" stroke-width="4" fill="none"></path></g></g><g stroke-linecap="round"><g transform="translate(192.56486671223524 534.0452090592332) rotate(0 26.1851332877647 -22.639866434378632)"><path d="M0 0 C6.25 -1.99, 28.77 -4.39, 37.5 -11.94 C46.22 -19.48, 49.89 -39.72, 52.37 -45.28 M0 0 C6.25 -1.99, 28.77 -4.39, 37.5 -11.94 C46.22 -19.48, 49.89 -39.72, 52.37 -45.28" stroke="#c92a2a" stroke-width="4" fill="none"></path></g><g transform="translate(192.56486671223524 534.0452090592332) rotate(0 26.1851332877647 -22.639866434378632)"><path d="M52.37 -45.28 L54.23 -30.39 L42.16 -34.29 L52.37 -45.28" stroke="none" stroke-width="0" fill="#c92a2a" fill-rule="evenodd"></path><path d="M52.37 -45.28 C52.86 -41.37, 53.35 -37.46, 54.23 -30.39 M52.37 -45.28 C52.76 -42.17, 53.14 -39.07, 54.23 -30.39 M54.23 -30.39 C51.7 -31.21, 49.17 -32.03, 42.16 -34.29 M54.23 -30.39 C50.91 -31.47, 47.59 -32.54, 42.16 -34.29 M42.16 -34.29 C45.53 -37.91, 48.89 -41.54, 52.37 -45.28 M42.16 -34.29 C45.56 -37.95, 48.97 -41.62, 52.37 -45.28 M52.37 -45.28 C52.37 -45.28, 52.37 -45.28, 52.37 -45.28 M52.37 -45.28 C52.37 -45.28, 52.37 -45.28, 52.37 -45.28" stroke="#c92a2a" stroke-width="4" fill="none"></path></g></g><g transform="translate(169.75 543.4053426248545) rotate(0 24 13)"><text x="0" y="18" font-family="Virgil, Segoe UI Emoji" font-size="20px" fill="#000000" text-anchor="start" style="white-space: pre;" direction="ltr">block</text></g><g stroke-linecap="round"><g transform="translate(357.0666775316415 489.6398664343785) rotate(180 -0.05969742324765548 30.360133565621368)"><path d="M0 0 C0.08 4.51, 0.6 16.94, 0.5 27.06 C0.39 37.18, -0.44 55.11, -0.63 60.72 M0 0 C0.08 4.51, 0.6 16.94, 0.5 27.06 C0.39 37.18, -0.44 55.11, -0.63 60.72" stroke="#c92a2a" stroke-width="4" fill="none"></path></g><g transform="translate(357.0666775316415 489.6398664343785) rotate(180 -0.05969742324765548 30.360133565621368)"><path d="M-0.63 60.72 L-6.43 46.89 L6.24 47.38 L-0.63 60.72" stroke="none" stroke-width="0" fill="#c92a2a" fill-rule="evenodd"></path><path d="M-0.63 60.72 C-2.42 56.46, -4.21 52.2, -6.43 46.89 M-0.63 60.72 C-2.84 55.45, -5.05 50.17, -6.43 46.89 M-6.43 46.89 C-2.05 47.06, 2.34 47.23, 6.24 47.38 M-6.43 46.89 C-3.44 47.01, -0.44 47.12, 6.24 47.38 M6.24 47.38 C4.28 51.18, 2.33 54.97, -0.63 60.72 M6.24 47.38 C4.26 51.23, 2.28 55.07, -0.63 60.72 M-0.63 60.72 C-0.63 60.72, -0.63 60.72, -0.63 60.72 M-0.63 60.72 C-0.63 60.72, -0.63 60.72, -0.63 60.72" stroke="#c92a2a" stroke-width="4" fill="none"></path></g></g><g transform="translate(312 553) rotate(0 47.5 13)"><text x="0" y="18" font-family="Virgil, Segoe UI Emoji" font-size="20px" fill="#000000" text-anchor="start" style="white-space: pre;" direction="ltr">nextWrite</text></g><g transform="translate(11 623) rotate(0 285.5 26)"><text x="0" y="18" font-family="Virgil, Segoe UI Emoji" font-size="20px" fill="#000000" text-anchor="start" style="white-space: pre;" direction="ltr">nextWrite(private): points to where to write</text><text x="0" y="44" font-family="Virgil, Segoe UI Emoji" font-size="20px" fill="#000000" text-anchor="start" style="white-space: pre;" direction="ltr">localRead(private): points to where the reader has read </text></g><g stroke-linecap="round"><g transform="translate(232.9333224683578 333.6398664343785) rotate(0 0.05969742324765548 30.360133565621368)"><path d="M0 0 C-0.08 4.51, -0.6 16.94, -0.5 27.06 C-0.39 37.18, 0.44 55.11, 0.63 60.72 M0 0 C-0.08 4.51, -0.6 16.94, -0.5 27.06 C-0.39 37.18, 0.44 55.11, 0.63 60.72" stroke="#c92a2a" stroke-width="4" fill="none"></path></g><g transform="translate(232.9333224683578 333.6398664343785) rotate(0 0.05969742324765548 30.360133565621368)"><path d="M0.63 60.72 L-6.24 47.38 L6.43 46.89 L0.63 60.72" stroke="none" stroke-width="0" fill="#c92a2a" fill-rule="evenodd"></path><path d="M0.63 60.72 C-2.09 55.43, -4.81 50.15, -6.24 47.38 M0.63 60.72 C-0.78 57.99, -2.18 55.25, -6.24 47.38 M-6.24 47.38 C-2.39 47.23, 1.45 47.08, 6.43 46.89 M-6.24 47.38 C-2.41 47.23, 1.41 47.08, 6.43 46.89 M6.43 46.89 C4.66 51.12, 2.88 55.36, 0.63 60.72 M6.43 46.89 C4.75 50.89, 3.07 54.89, 0.63 60.72 M0.63 60.72 C0.63 60.72, 0.63 60.72, 0.63 60.72 M0.63 60.72 C0.63 60.72, 0.63 60.72, 0.63 60.72" stroke="#c92a2a" stroke-width="4" fill="none"></path></g></g><g transform="translate(197 305) rotate(0 48 13)"><text x="0" y="18" font-family="Virgil, Segoe UI Emoji" font-size="20px" fill="#000000" text-anchor="start" style="white-space: pre;" direction="ltr">localRead</text></g></svg>