<?xml version="1.0" encoding="UTF-8"?>
<!DOCTYPE svg PUBLIC "-//W3C//DTD SVG 1.1//EN" "http://www.w3.org/Graphics/SVG/1.1/DTD/svg11.dtd">
<svg xmlns="http://www.w3.org/2000/svg" version="1.1" width="512px" height="512px" style="shape-rendering:geometricPrecision; text-rendering:geometricPrecision; image-rendering:optimizeQuality; fill-rule:evenodd; clip-rule:evenodd" xmlns:xlink="http://www.w3.org/1999/xlink">
<g><path style="opacity:0.99" fill="#000000" d="M 50.5,-0.5 C 84.8333,-0.5 119.167,-0.5 153.5,-0.5C 153.5,67.5 153.5,135.5 153.5,203.5C 187.84,203.167 222.173,203.5 256.5,204.5C 324.769,306.719 392.769,409.052 460.5,511.5C 425.833,511.5 391.167,511.5 356.5,511.5C 289.248,409.733 221.748,308.066 154,206.5C 153.5,308.166 153.333,409.833 153.5,511.5C 119.167,511.5 84.8333,511.5 50.5,511.5C 50.5,340.833 50.5,170.167 50.5,-0.5 Z"/></g>
<g><path style="opacity:0.985" fill="#000000" d="M 357.5,-0.5 C 391.833,-0.5 426.167,-0.5 460.5,-0.5C 426.975,101.575 393.142,203.575 359,305.5C 357.084,308.033 355.084,308.033 353,305.5C 330.988,272.803 309.488,239.803 288.5,206.5C 311.31,137.404 334.31,68.4035 357.5,-0.5 Z"/></g>
</svg>
