<?xml version="1.0" standalone="no"?>
<!DOCTYPE svg PUBLIC "-//W3C//DTD SVG 20010904//EN"
 "http://www.w3.org/TR/2001/REC-SVG-20010904/DTD/svg10.dtd">
<svg version="1.0" xmlns="http://www.w3.org/2000/svg"
 width="700.000000pt" height="700.000000pt" viewBox="0 0 700.000000 700.000000"
 preserveAspectRatio="xMidYMid meet">
<metadata>
Created by potrace 1.14, written by Peter Selinger 2001-2017
</metadata>
<g transform="translate(0.000000,700.000000) scale(0.100000,-0.100000)"
fill="#000000" stroke="none">
<path d="M659 6263 c-81 -13 -185 -115 -210 -206 -16 -59 -17 -4324 -1 -4382
27 -97 111 -180 207 -206 27 -8 353 -11 1035 -11 793 -1 1008 -3 1060 -14 183
-38 354 -184 419 -359 27 -71 31 -93 37 -195 6 -100 33 -167 89 -222 59 -59
117 -82 205 -82 88 0 146 24 205 82 64 63 81 110 90 240 10 156 60 266 170
379 75 77 167 128 286 160 13 4 476 8 1029 9 552 1 1022 5 1043 8 91 15 172
80 215 174 l25 56 0 2150 c-1 1183 -4 2170 -8 2194 -17 97 -108 196 -206 222
-45 12 -1838 8 -1904 -4 -273 -51 -497 -151 -695 -311 -72 -58 -174 -160 -217
-217 -15 -21 -30 -37 -33 -37 -3 0 -18 16 -33 37 -16 20 -48 57 -71 82 -195
204 -429 344 -687 411 -181 47 -203 48 -1139 47 -487 -1 -897 -3 -911 -5z
m1871 -597 c161 -41 313 -126 420 -235 62 -64 100 -109 100 -120 0 -5 4 -11 8
-13 12 -5 66 -105 90 -168 59 -152 55 -35 57 -1707 1 -843 1 -1533 0 -1533 -1
0 -33 15 -71 33 -128 63 -254 99 -394 113 -30 3 -430 6 -887 6 l-833 1 0 1823
0 1822 723 -2 c634 -3 730 -5 787 -20z m3450 -1801 l0 -1822 -832 0 c-458 0
-860 -4 -893 -7 -138 -16 -285 -59 -396 -115 -33 -17 -61 -31 -63 -31 -6 0 1
3046 8 3075 14 62 49 171 69 215 119 260 382 458 659 496 24 4 44 7 46 9 1 1
317 2 702 2 l700 1 0 -1823z"/>
</g>
</svg>
