<?xml version="1.0" encoding="UTF-8"?>
<!DOCTYPE svg PUBLIC "-//W3C//DTD SVG 1.1//EN" "http://www.w3.org/Graphics/SVG/1.1/DTD/svg11.dtd">
<svg xmlns="http://www.w3.org/2000/svg" version="1.1" width="1305px" height="461px" style="shape-rendering:geometricPrecision; text-rendering:geometricPrecision; image-rendering:optimizeQuality; fill-rule:evenodd; clip-rule:evenodd" xmlns:xlink="http://www.w3.org/1999/xlink">
<g><path style="opacity:1" fill="#e9eae9" d="M -0.5,-0.5 C 434.5,-0.5 869.5,-0.5 1304.5,-0.5C 1304.5,153.167 1304.5,306.833 1304.5,460.5C 869.5,460.5 434.5,460.5 -0.5,460.5C -0.5,306.833 -0.5,153.167 -0.5,-0.5 Z"/></g>
<g><path style="opacity:1" fill="#1d344f" d="M 360.5,12.5 C 446.5,12.5 532.5,12.5 618.5,12.5C 618.5,153.5 618.5,294.5 618.5,435.5C 532.5,435.5 446.5,435.5 360.5,435.5C 360.5,294.5 360.5,153.5 360.5,12.5 Z"/></g>
<g><path style="opacity:1" fill="#e9e9e9" d="M 363.5,15.5 C 447.5,15.5 531.5,15.5 615.5,15.5C 615.5,61.1667 615.5,106.833 615.5,152.5C 531.5,152.5 447.5,152.5 363.5,152.5C 363.5,106.833 363.5,61.1667 363.5,15.5 Z"/></g>
<g><path style="opacity:1" fill="#31455d" d="M 422.5,73.5 C 425.167,73.5 427.833,73.5 430.5,73.5C 430.334,79.5092 430.501,85.5092 431,91.5C 432.825,92.1029 434.659,92.7696 436.5,93.5C 433.966,94.7766 431.466,94.7766 429,93.5C 427.59,87.6208 427.09,81.6208 427.5,75.5C 425.219,75.9227 423.552,75.256 422.5,73.5 Z"/></g>
<g><path style="opacity:1" fill="#31455d" d="M 439.5,73.5 C 442.167,73.5 444.833,73.5 447.5,73.5C 447.334,79.5092 447.501,85.5092 448,91.5C 449.825,92.1029 451.659,92.7696 453.5,93.5C 450.966,94.7766 448.466,94.7766 446,93.5C 444.59,87.6208 444.09,81.6208 444.5,75.5C 442.219,75.9227 440.552,75.256 439.5,73.5 Z"/></g>
<g><path style="opacity:1" fill="#1e3550" d="M 509.5,73.5 C 513.555,73.1758 517.555,73.5091 521.5,74.5C 518.232,75.487 514.898,75.8204 511.5,75.5C 511.5,77.8333 511.5,80.1667 511.5,82.5C 523.5,83.1667 523.5,83.8333 511.5,84.5C 511.82,87.8984 511.487,91.2317 510.5,94.5C 509.503,87.5316 509.17,80.5316 509.5,73.5 Z"/></g>
<g><path style="opacity:1" fill="#354860" d="M 393.5,73.5 C 397.07,72.8929 399.737,74.0596 401.5,77C 401.167,77.5 400.833,78 400.5,78.5C 399.126,77.2887 397.626,76.2887 396,75.5C 394.739,75.7591 393.739,76.4258 393,77.5C 392.333,81.8333 392.333,86.1667 393,90.5C 393.739,91.5742 394.739,92.2409 396,92.5C 397.626,91.7113 399.126,90.7113 400.5,89.5C 401.731,90.6507 401.731,91.8173 400.5,93C 396.131,95.4619 392.631,94.6285 390,90.5C 389.333,86.1667 389.333,81.8333 390,77.5C 390.69,75.6498 391.856,74.3164 393.5,73.5 Z"/></g>
<g><path style="opacity:1" fill="#33465f" d="M 528.5,78.5 C 528.433,79.9587 528.766,81.2921 529.5,82.5C 529.5,86.5 529.5,90.5 529.5,94.5C 528.5,94.5 527.5,94.5 526.5,94.5C 525.887,88.7291 526.554,83.3958 528.5,78.5 Z"/></g>
<g><path style="opacity:1" fill="#7d8997" d="M 528.5,78.5 C 529.167,78.8333 529.833,79.1667 530.5,79.5C 531.833,80.1667 533.167,80.8333 534.5,81.5C 532.708,81.366 531.042,81.6993 529.5,82.5C 528.766,81.2921 528.433,79.9587 528.5,78.5 Z"/></g>
<g><path style="opacity:1" fill="#2a3e58" d="M 409.5,78.5 C 416.809,77.3065 419.809,80.3065 418.5,87.5C 418.167,89.8333 417.833,92.1667 417.5,94.5C 416.808,93.9747 416.308,93.3081 416,92.5C 408.946,96.4385 405.946,94.4385 407,86.5C 409.826,84.6602 412.993,83.9935 416.5,84.5C 416.64,82.8762 415.973,81.7096 414.5,81C 411.696,80.8707 409.03,81.204 406.5,82C 407.71,80.9609 408.71,79.7942 409.5,78.5 Z"/></g>
<g><path style="opacity:1" fill="#32455e" d="M 460.5,78.5 C 467.633,77.3875 470.966,80.3875 470.5,87.5C 467.167,87.5 463.833,87.5 460.5,87.5C 461.477,92.749 464.143,93.749 468.5,90.5C 468.833,90.8333 469.167,91.1667 469.5,91.5C 466.285,94.9532 462.785,95.2865 459,92.5C 456.622,87.4062 457.122,82.7395 460.5,78.5 Z"/></g>
<g><path style="opacity:1" fill="#2f435c" d="M 484.5,73.5 C 485.821,76.5982 486.488,80.0982 486.5,84C 486.167,87.5 485.833,91 485.5,94.5C 484.676,92.2524 483.676,92.0858 482.5,94C 478.834,95.271 476.334,94.1044 475,90.5C 474.333,87.5 474.333,84.5 475,81.5C 477.626,77.9281 480.626,77.5948 484,80.5C 484.497,78.1902 484.663,75.8568 484.5,73.5 Z"/></g>
<g><path style="opacity:1" fill="#2c405a" d="M 534.5,81.5 C 533.167,80.8333 531.833,80.1667 530.5,79.5C 536.465,77.6225 538.799,79.6225 537.5,85.5C 536.85,83.8164 535.85,82.4831 534.5,81.5 Z"/></g>
<g><path style="opacity:1" fill="#2a3e58" d="M 545.5,78.5 C 552.809,77.3065 555.809,80.3065 554.5,87.5C 554.167,89.8333 553.833,92.1667 553.5,94.5C 552.808,93.9747 552.308,93.3081 552,92.5C 544.946,96.4385 541.946,94.4385 543,86.5C 545.826,84.6602 548.993,83.9935 552.5,84.5C 552.64,82.8762 551.973,81.7096 550.5,81C 547.696,80.8707 545.03,81.204 542.5,82C 543.71,80.9609 544.71,79.7942 545.5,78.5 Z"/></g>
<g><path style="opacity:1" fill="#243954" d="M 567.5,80.5 C 568.585,78.4178 570.085,78.0844 572,79.5C 572.829,84.533 572.662,89.533 571.5,94.5C 570.672,90.2044 570.172,85.8711 570,81.5C 569.329,80.7476 568.496,80.4142 567.5,80.5 Z"/></g>
<g><path style="opacity:1" fill="#32455e" d="M 579.5,78.5 C 586.633,77.3875 589.966,80.3875 589.5,87.5C 586.167,87.5 582.833,87.5 579.5,87.5C 580.477,92.749 583.143,93.749 587.5,90.5C 587.833,90.8333 588.167,91.1667 588.5,91.5C 585.285,94.9532 581.785,95.2865 578,92.5C 575.622,87.4062 576.122,82.7395 579.5,78.5 Z"/></g>
<g><path style="opacity:1" fill="#394c63" d="M 567.5,80.5 C 567.5,85.1667 567.5,89.8333 567.5,94.5C 566.5,94.5 565.5,94.5 564.5,94.5C 564.827,89.7863 564.493,85.1196 563.5,80.5C 562.914,80.7093 562.414,81.0426 562,81.5C 561.828,85.8711 561.328,90.2044 560.5,94.5C 559.167,89.1667 559.167,83.8333 560.5,78.5C 563.028,77.8904 565.361,78.5571 567.5,80.5 Z"/></g>
<g><path style="opacity:1" fill="#d9dbdd" d="M 462.5,80.5 C 465.833,80.5 467.5,82.1667 467.5,85.5C 465.167,85.5 462.833,85.5 460.5,85.5C 460.392,83.4862 461.058,81.8195 462.5,80.5 Z"/></g>
<g><path style="opacity:1" fill="#dee0e1" d="M 479.5,80.5 C 481.39,80.2965 482.89,80.9632 484,82.5C 484.667,85.1667 484.667,87.8333 484,90.5C 482,93.1667 480,93.1667 478,90.5C 477.037,86.8513 477.537,83.518 479.5,80.5 Z"/></g>
<g><path style="opacity:1" fill="#d9dbdd" d="M 581.5,80.5 C 584.833,80.5 586.5,82.1667 586.5,85.5C 584.167,85.5 581.833,85.5 579.5,85.5C 579.392,83.4862 580.058,81.8195 581.5,80.5 Z"/></g>
<g><path style="opacity:1" fill="#d4d6d9" d="M 409.5,86.5 C 411.833,86.5 414.167,86.5 416.5,86.5C 416.631,91.7083 414.298,93.3749 409.5,91.5C 408.334,89.8327 408.334,88.166 409.5,86.5 Z"/></g>
<g><path style="opacity:1" fill="#d4d6d9" d="M 545.5,86.5 C 547.833,86.5 550.167,86.5 552.5,86.5C 552.631,91.7083 550.298,93.3749 545.5,91.5C 544.334,89.8327 544.334,88.166 545.5,86.5 Z"/></g>
<g><path style="opacity:1" fill="#1d344f" d="M 20.5,152.5 C 106.5,152.5 192.5,152.5 278.5,152.5C 278.5,246.833 278.5,341.167 278.5,435.5C 192.5,435.5 106.5,435.5 20.5,435.5C 20.5,341.167 20.5,246.833 20.5,152.5 Z"/></g>
<g><path style="opacity:1" fill="#1d344f" d="M 700.5,152.5 C 786.5,152.5 872.5,152.5 958.5,152.5C 958.5,246.833 958.5,341.167 958.5,435.5C 872.5,435.5 786.5,435.5 700.5,435.5C 700.5,341.167 700.5,246.833 700.5,152.5 Z"/></g>
<g><path style="opacity:1" fill="#e9e9e9" d="M 23.5,155.5 C 107.5,155.5 191.5,155.5 275.5,155.5C 275.5,201.167 275.5,246.833 275.5,292.5C 191.5,292.5 107.5,292.5 23.5,292.5C 23.5,246.833 23.5,201.167 23.5,155.5 Z"/></g>
<g><path style="opacity:1" fill="#e9e9e9" d="M 363.5,155.5 C 447.5,155.5 531.5,155.5 615.5,155.5C 615.5,201.167 615.5,246.833 615.5,292.5C 531.5,292.5 447.5,292.5 363.5,292.5C 363.5,246.833 363.5,201.167 363.5,155.5 Z"/></g>
<g><path style="opacity:1" fill="#e9e9e9" d="M 703.5,155.5 C 787.5,155.5 871.5,155.5 955.5,155.5C 955.5,201.167 955.5,246.833 955.5,292.5C 871.5,292.5 787.5,292.5 703.5,292.5C 703.5,246.833 703.5,201.167 703.5,155.5 Z"/></g>
<g><path style="opacity:1" fill="#31455d" d="M 82.5,213.5 C 85.1667,213.5 87.8333,213.5 90.5,213.5C 90.3338,219.509 90.5005,225.509 91,231.5C 92.8254,232.103 94.6587,232.77 96.5,233.5C 93.9659,234.777 91.4659,234.777 89,233.5C 87.5899,227.621 87.0899,221.621 87.5,215.5C 85.2188,215.923 83.5521,215.256 82.5,213.5 Z"/></g>
<g><path style="opacity:1" fill="#31455d" d="M 99.5,213.5 C 102.167,213.5 104.833,213.5 107.5,213.5C 107.334,219.509 107.501,225.509 108,231.5C 109.825,232.103 111.659,232.77 113.5,233.5C 110.966,234.777 108.466,234.777 106,233.5C 104.59,227.621 104.09,221.621 104.5,215.5C 102.219,215.923 100.552,215.256 99.5,213.5 Z"/></g>
<g><path style="opacity:1" fill="#1e3550" d="M 169.5,213.5 C 173.555,213.176 177.555,213.509 181.5,214.5C 178.232,215.487 174.898,215.82 171.5,215.5C 171.5,217.833 171.5,220.167 171.5,222.5C 183.5,223.167 183.5,223.833 171.5,224.5C 171.82,227.898 171.487,231.232 170.5,234.5C 169.503,227.532 169.17,220.532 169.5,213.5 Z"/></g>
<g><path style="opacity:1" fill="#31455d" d="M 422.5,213.5 C 425.167,213.5 427.833,213.5 430.5,213.5C 430.334,219.509 430.501,225.509 431,231.5C 432.825,232.103 434.659,232.77 436.5,233.5C 433.966,234.777 431.466,234.777 429,233.5C 427.59,227.621 427.09,221.621 427.5,215.5C 425.219,215.923 423.552,215.256 422.5,213.5 Z"/></g>
<g><path style="opacity:1" fill="#31455d" d="M 439.5,213.5 C 442.167,213.5 444.833,213.5 447.5,213.5C 447.334,219.509 447.501,225.509 448,231.5C 449.825,232.103 451.659,232.77 453.5,233.5C 450.966,234.777 448.466,234.777 446,233.5C 444.59,227.621 444.09,221.621 444.5,215.5C 442.219,215.923 440.552,215.256 439.5,213.5 Z"/></g>
<g><path style="opacity:1" fill="#1e3550" d="M 509.5,213.5 C 513.555,213.176 517.555,213.509 521.5,214.5C 518.232,215.487 514.898,215.82 511.5,215.5C 511.5,217.833 511.5,220.167 511.5,222.5C 523.5,223.167 523.5,223.833 511.5,224.5C 511.82,227.898 511.487,231.232 510.5,234.5C 509.503,227.532 509.17,220.532 509.5,213.5 Z"/></g>
<g><path style="opacity:1" fill="#31455d" d="M 762.5,213.5 C 765.167,213.5 767.833,213.5 770.5,213.5C 770.334,219.509 770.501,225.509 771,231.5C 772.825,232.103 774.659,232.77 776.5,233.5C 773.966,234.777 771.466,234.777 769,233.5C 767.59,227.621 767.09,221.621 767.5,215.5C 765.219,215.923 763.552,215.256 762.5,213.5 Z"/></g>
<g><path style="opacity:1" fill="#31455d" d="M 779.5,213.5 C 782.167,213.5 784.833,213.5 787.5,213.5C 787.334,219.509 787.501,225.509 788,231.5C 789.825,232.103 791.659,232.77 793.5,233.5C 790.966,234.777 788.466,234.777 786,233.5C 784.59,227.621 784.09,221.621 784.5,215.5C 782.219,215.923 780.552,215.256 779.5,213.5 Z"/></g>
<g><path style="opacity:1" fill="#1e3550" d="M 849.5,213.5 C 853.555,213.176 857.555,213.509 861.5,214.5C 858.232,215.487 854.898,215.82 851.5,215.5C 851.5,217.833 851.5,220.167 851.5,222.5C 863.5,223.167 863.5,223.833 851.5,224.5C 851.82,227.898 851.487,231.232 850.5,234.5C 849.503,227.532 849.17,220.532 849.5,213.5 Z"/></g>
<g><path style="opacity:1" fill="#354860" d="M 53.5,213.5 C 57.0701,212.893 59.7368,214.06 61.5,217C 61.1667,217.5 60.8333,218 60.5,218.5C 59.1255,217.289 57.6255,216.289 56,215.5C 54.7387,215.759 53.7387,216.426 53,217.5C 52.3333,221.833 52.3333,226.167 53,230.5C 53.7387,231.574 54.7387,232.241 56,232.5C 57.6255,231.711 59.1255,230.711 60.5,229.5C 61.731,230.651 61.731,231.817 60.5,233C 56.1311,235.462 52.6311,234.629 50,230.5C 49.3333,226.167 49.3333,221.833 50,217.5C 50.6897,215.65 51.8564,214.316 53.5,213.5 Z"/></g>
<g><path style="opacity:1" fill="#354860" d="M 393.5,213.5 C 397.07,212.893 399.737,214.06 401.5,217C 401.167,217.5 400.833,218 400.5,218.5C 399.126,217.289 397.626,216.289 396,215.5C 394.739,215.759 393.739,216.426 393,217.5C 392.333,221.833 392.333,226.167 393,230.5C 393.739,231.574 394.739,232.241 396,232.5C 397.626,231.711 399.126,230.711 400.5,229.5C 401.731,230.651 401.731,231.817 400.5,233C 396.131,235.462 392.631,234.629 390,230.5C 389.333,226.167 389.333,221.833 390,217.5C 390.69,215.65 391.856,214.316 393.5,213.5 Z"/></g>
<g><path style="opacity:1" fill="#354860" d="M 733.5,213.5 C 737.07,212.893 739.737,214.06 741.5,217C 741.167,217.5 740.833,218 740.5,218.5C 739.126,217.289 737.626,216.289 736,215.5C 734.739,215.759 733.739,216.426 733,217.5C 732.333,221.833 732.333,226.167 733,230.5C 733.739,231.574 734.739,232.241 736,232.5C 737.626,231.711 739.126,230.711 740.5,229.5C 741.731,230.651 741.731,231.817 740.5,233C 736.131,235.462 732.631,234.629 730,230.5C 729.333,226.167 729.333,221.833 730,217.5C 730.69,215.65 731.856,214.316 733.5,213.5 Z"/></g>
<g><path style="opacity:1" fill="#33465f" d="M 137.5,218.5 C 137.433,219.959 137.766,221.292 138.5,222.5C 138.5,226.5 138.5,230.5 138.5,234.5C 137.5,234.5 136.5,234.5 135.5,234.5C 134.887,228.729 135.554,223.396 137.5,218.5 Z"/></g>
<g><path style="opacity:1" fill="#7d8997" d="M 137.5,218.5 C 138.167,218.833 138.833,219.167 139.5,219.5C 140.833,220.167 142.167,220.833 143.5,221.5C 141.708,221.366 140.042,221.699 138.5,222.5C 137.766,221.292 137.433,219.959 137.5,218.5 Z"/></g>
<g><path style="opacity:1" fill="#33465f" d="M 188.5,218.5 C 188.433,219.959 188.766,221.292 189.5,222.5C 189.5,226.5 189.5,230.5 189.5,234.5C 188.5,234.5 187.5,234.5 186.5,234.5C 185.887,228.729 186.554,223.396 188.5,218.5 Z"/></g>
<g><path style="opacity:1" fill="#7d8997" d="M 188.5,218.5 C 189.167,218.833 189.833,219.167 190.5,219.5C 191.833,220.167 193.167,220.833 194.5,221.5C 192.708,221.366 191.042,221.699 189.5,222.5C 188.766,221.292 188.433,219.959 188.5,218.5 Z"/></g>
<g><path style="opacity:1" fill="#33465f" d="M 477.5,218.5 C 477.433,219.959 477.766,221.292 478.5,222.5C 478.5,226.5 478.5,230.5 478.5,234.5C 477.5,234.5 476.5,234.5 475.5,234.5C 474.887,228.729 475.554,223.396 477.5,218.5 Z"/></g>
<g><path style="opacity:1" fill="#7d8997" d="M 477.5,218.5 C 478.167,218.833 478.833,219.167 479.5,219.5C 480.833,220.167 482.167,220.833 483.5,221.5C 481.708,221.366 480.042,221.699 478.5,222.5C 477.766,221.292 477.433,219.959 477.5,218.5 Z"/></g>
<g><path style="opacity:1" fill="#33465f" d="M 528.5,218.5 C 528.433,219.959 528.766,221.292 529.5,222.5C 529.5,226.5 529.5,230.5 529.5,234.5C 528.5,234.5 527.5,234.5 526.5,234.5C 525.887,228.729 526.554,223.396 528.5,218.5 Z"/></g>
<g><path style="opacity:1" fill="#7d8997" d="M 528.5,218.5 C 529.167,218.833 529.833,219.167 530.5,219.5C 531.833,220.167 533.167,220.833 534.5,221.5C 532.708,221.366 531.042,221.699 529.5,222.5C 528.766,221.292 528.433,219.959 528.5,218.5 Z"/></g>
<g><path style="opacity:1" fill="#33465f" d="M 817.5,218.5 C 817.433,219.959 817.766,221.292 818.5,222.5C 818.5,226.5 818.5,230.5 818.5,234.5C 817.5,234.5 816.5,234.5 815.5,234.5C 814.887,228.729 815.554,223.396 817.5,218.5 Z"/></g>
<g><path style="opacity:1" fill="#7d8997" d="M 817.5,218.5 C 818.167,218.833 818.833,219.167 819.5,219.5C 820.833,220.167 822.167,220.833 823.5,221.5C 821.708,221.366 820.042,221.699 818.5,222.5C 817.766,221.292 817.433,219.959 817.5,218.5 Z"/></g>
<g><path style="opacity:1" fill="#33465f" d="M 868.5,218.5 C 868.433,219.959 868.766,221.292 869.5,222.5C 869.5,226.5 869.5,230.5 869.5,234.5C 868.5,234.5 867.5,234.5 866.5,234.5C 865.887,228.729 866.554,223.396 868.5,218.5 Z"/></g>
<g><path style="opacity:1" fill="#7d8997" d="M 868.5,218.5 C 869.167,218.833 869.833,219.167 870.5,219.5C 871.833,220.167 873.167,220.833 874.5,221.5C 872.708,221.366 871.042,221.699 869.5,222.5C 868.766,221.292 868.433,219.959 868.5,218.5 Z"/></g>
<g><path style="opacity:1" fill="#2a3e58" d="M 69.5,218.5 C 76.8086,217.306 79.8086,220.306 78.5,227.5C 78.1667,229.833 77.8333,232.167 77.5,234.5C 76.8076,233.975 76.3076,233.308 76,232.5C 68.9457,236.438 65.9457,234.438 67,226.5C 69.8263,224.66 72.9929,223.994 76.5,224.5C 76.6399,222.876 75.9733,221.71 74.5,221C 71.6963,220.871 69.0297,221.204 66.5,222C 67.7101,220.961 68.7101,219.794 69.5,218.5 Z"/></g>
<g><path style="opacity:1" fill="#32455e" d="M 120.5,218.5 C 127.633,217.387 130.966,220.387 130.5,227.5C 127.167,227.5 123.833,227.5 120.5,227.5C 121.477,232.749 124.143,233.749 128.5,230.5C 128.833,230.833 129.167,231.167 129.5,231.5C 126.285,234.953 122.785,235.287 119,232.5C 116.622,227.406 117.122,222.739 120.5,218.5 Z"/></g>
<g><path style="opacity:1" fill="#2c405a" d="M 143.5,221.5 C 142.167,220.833 140.833,220.167 139.5,219.5C 145.465,217.623 147.799,219.623 146.5,225.5C 145.85,223.816 144.85,222.483 143.5,221.5 Z"/></g>
<g><path style="opacity:1" fill="#2c405a" d="M 194.5,221.5 C 193.167,220.833 191.833,220.167 190.5,219.5C 196.465,217.623 198.799,219.623 197.5,225.5C 196.85,223.816 195.85,222.483 194.5,221.5 Z"/></g>
<g><path style="opacity:1" fill="#2a3e58" d="M 205.5,218.5 C 212.809,217.306 215.809,220.306 214.5,227.5C 214.167,229.833 213.833,232.167 213.5,234.5C 212.808,233.975 212.308,233.308 212,232.5C 204.946,236.438 201.946,234.438 203,226.5C 205.826,224.66 208.993,223.994 212.5,224.5C 212.64,222.876 211.973,221.71 210.5,221C 207.696,220.871 205.03,221.204 202.5,222C 203.71,220.961 204.71,219.794 205.5,218.5 Z"/></g>
<g><path style="opacity:1" fill="#243954" d="M 227.5,220.5 C 228.585,218.418 230.085,218.084 232,219.5C 232.829,224.533 232.662,229.533 231.5,234.5C 230.672,230.204 230.172,225.871 230,221.5C 229.329,220.748 228.496,220.414 227.5,220.5 Z"/></g>
<g><path style="opacity:1" fill="#32455e" d="M 239.5,218.5 C 246.633,217.387 249.966,220.387 249.5,227.5C 246.167,227.5 242.833,227.5 239.5,227.5C 240.477,232.749 243.143,233.749 247.5,230.5C 247.833,230.833 248.167,231.167 248.5,231.5C 245.285,234.953 241.785,235.287 238,232.5C 235.622,227.406 236.122,222.739 239.5,218.5 Z"/></g>
<g><path style="opacity:1" fill="#2a3e58" d="M 409.5,218.5 C 416.809,217.306 419.809,220.306 418.5,227.5C 418.167,229.833 417.833,232.167 417.5,234.5C 416.808,233.975 416.308,233.308 416,232.5C 408.946,236.438 405.946,234.438 407,226.5C 409.826,224.66 412.993,223.994 416.5,224.5C 416.64,222.876 415.973,221.71 414.5,221C 411.696,220.871 409.03,221.204 406.5,222C 407.71,220.961 408.71,219.794 409.5,218.5 Z"/></g>
<g><path style="opacity:1" fill="#32455e" d="M 460.5,218.5 C 467.633,217.387 470.966,220.387 470.5,227.5C 467.167,227.5 463.833,227.5 460.5,227.5C 461.477,232.749 464.143,233.749 468.5,230.5C 468.833,230.833 469.167,231.167 469.5,231.5C 466.285,234.953 462.785,235.287 459,232.5C 456.622,227.406 457.122,222.739 460.5,218.5 Z"/></g>
<g><path style="opacity:1" fill="#2c405a" d="M 483.5,221.5 C 482.167,220.833 480.833,220.167 479.5,219.5C 485.465,217.623 487.799,219.623 486.5,225.5C 485.85,223.816 484.85,222.483 483.5,221.5 Z"/></g>
<g><path style="opacity:1" fill="#2c405a" d="M 534.5,221.5 C 533.167,220.833 531.833,220.167 530.5,219.5C 536.465,217.623 538.799,219.623 537.5,225.5C 536.85,223.816 535.85,222.483 534.5,221.5 Z"/></g>
<g><path style="opacity:1" fill="#2a3e58" d="M 545.5,218.5 C 552.809,217.306 555.809,220.306 554.5,227.5C 554.167,229.833 553.833,232.167 553.5,234.5C 552.808,233.975 552.308,233.308 552,232.5C 544.946,236.438 541.946,234.438 543,226.5C 545.826,224.66 548.993,223.994 552.5,224.5C 552.64,222.876 551.973,221.71 550.5,221C 547.696,220.871 545.03,221.204 542.5,222C 543.71,220.961 544.71,219.794 545.5,218.5 Z"/></g>
<g><path style="opacity:1" fill="#243954" d="M 567.5,220.5 C 568.585,218.418 570.085,218.084 572,219.5C 572.829,224.533 572.662,229.533 571.5,234.5C 570.672,230.204 570.172,225.871 570,221.5C 569.329,220.748 568.496,220.414 567.5,220.5 Z"/></g>
<g><path style="opacity:1" fill="#32455e" d="M 579.5,218.5 C 586.633,217.387 589.966,220.387 589.5,227.5C 586.167,227.5 582.833,227.5 579.5,227.5C 580.477,232.749 583.143,233.749 587.5,230.5C 587.833,230.833 588.167,231.167 588.5,231.5C 585.285,234.953 581.785,235.287 578,232.5C 575.622,227.406 576.122,222.739 579.5,218.5 Z"/></g>
<g><path style="opacity:1" fill="#2a3e58" d="M 749.5,218.5 C 756.809,217.306 759.809,220.306 758.5,227.5C 758.167,229.833 757.833,232.167 757.5,234.5C 756.808,233.975 756.308,233.308 756,232.5C 748.946,236.438 745.946,234.438 747,226.5C 749.826,224.66 752.993,223.994 756.5,224.5C 756.64,222.876 755.973,221.71 754.5,221C 751.696,220.871 749.03,221.204 746.5,222C 747.71,220.961 748.71,219.794 749.5,218.5 Z"/></g>
<g><path style="opacity:1" fill="#32455e" d="M 800.5,218.5 C 807.633,217.387 810.966,220.387 810.5,227.5C 807.167,227.5 803.833,227.5 800.5,227.5C 801.477,232.749 804.143,233.749 808.5,230.5C 808.833,230.833 809.167,231.167 809.5,231.5C 806.285,234.953 802.785,235.287 799,232.5C 796.622,227.406 797.122,222.739 800.5,218.5 Z"/></g>
<g><path style="opacity:1" fill="#2c405a" d="M 823.5,221.5 C 822.167,220.833 820.833,220.167 819.5,219.5C 825.465,217.623 827.799,219.623 826.5,225.5C 825.85,223.816 824.85,222.483 823.5,221.5 Z"/></g>
<g><path style="opacity:1" fill="#2c405a" d="M 874.5,221.5 C 873.167,220.833 871.833,220.167 870.5,219.5C 876.465,217.623 878.799,219.623 877.5,225.5C 876.85,223.816 875.85,222.483 874.5,221.5 Z"/></g>
<g><path style="opacity:1" fill="#2a3e58" d="M 885.5,218.5 C 892.809,217.306 895.809,220.306 894.5,227.5C 894.167,229.833 893.833,232.167 893.5,234.5C 892.808,233.975 892.308,233.308 892,232.5C 884.946,236.438 881.946,234.438 883,226.5C 885.826,224.66 888.993,223.994 892.5,224.5C 892.64,222.876 891.973,221.71 890.5,221C 887.696,220.871 885.03,221.204 882.5,222C 883.71,220.961 884.71,219.794 885.5,218.5 Z"/></g>
<g><path style="opacity:1" fill="#243954" d="M 907.5,220.5 C 908.585,218.418 910.085,218.084 912,219.5C 912.829,224.533 912.662,229.533 911.5,234.5C 910.672,230.204 910.172,225.871 910,221.5C 909.329,220.748 908.496,220.414 907.5,220.5 Z"/></g>
<g><path style="opacity:1" fill="#32455e" d="M 919.5,218.5 C 926.633,217.387 929.966,220.387 929.5,227.5C 926.167,227.5 922.833,227.5 919.5,227.5C 920.477,232.749 923.143,233.749 927.5,230.5C 927.833,230.833 928.167,231.167 928.5,231.5C 925.285,234.953 921.785,235.287 918,232.5C 915.622,227.406 916.122,222.739 919.5,218.5 Z"/></g>
<g><path style="opacity:1" fill="#394c63" d="M 227.5,220.5 C 227.5,225.167 227.5,229.833 227.5,234.5C 226.5,234.5 225.5,234.5 224.5,234.5C 224.827,229.786 224.493,225.12 223.5,220.5C 222.914,220.709 222.414,221.043 222,221.5C 221.828,225.871 221.328,230.204 220.5,234.5C 219.167,229.167 219.167,223.833 220.5,218.5C 223.028,217.89 225.361,218.557 227.5,220.5 Z"/></g>
<g><path style="opacity:1" fill="#394c63" d="M 567.5,220.5 C 567.5,225.167 567.5,229.833 567.5,234.5C 566.5,234.5 565.5,234.5 564.5,234.5C 564.827,229.786 564.493,225.12 563.5,220.5C 562.914,220.709 562.414,221.043 562,221.5C 561.828,225.871 561.328,230.204 560.5,234.5C 559.167,229.167 559.167,223.833 560.5,218.5C 563.028,217.89 565.361,218.557 567.5,220.5 Z"/></g>
<g><path style="opacity:1" fill="#394c63" d="M 907.5,220.5 C 907.5,225.167 907.5,229.833 907.5,234.5C 906.5,234.5 905.5,234.5 904.5,234.5C 904.827,229.786 904.493,225.12 903.5,220.5C 902.914,220.709 902.414,221.043 902,221.5C 901.828,225.871 901.328,230.204 900.5,234.5C 899.167,229.167 899.167,223.833 900.5,218.5C 903.028,217.89 905.361,218.557 907.5,220.5 Z"/></g>
<g><path style="opacity:1" fill="#d9dbdd" d="M 122.5,220.5 C 125.833,220.5 127.5,222.167 127.5,225.5C 125.167,225.5 122.833,225.5 120.5,225.5C 120.392,223.486 121.058,221.82 122.5,220.5 Z"/></g>
<g><path style="opacity:1" fill="#d9dbdd" d="M 241.5,220.5 C 244.833,220.5 246.5,222.167 246.5,225.5C 244.167,225.5 241.833,225.5 239.5,225.5C 239.392,223.486 240.058,221.82 241.5,220.5 Z"/></g>
<g><path style="opacity:1" fill="#d9dbdd" d="M 462.5,220.5 C 465.833,220.5 467.5,222.167 467.5,225.5C 465.167,225.5 462.833,225.5 460.5,225.5C 460.392,223.486 461.058,221.82 462.5,220.5 Z"/></g>
<g><path style="opacity:1" fill="#d9dbdd" d="M 581.5,220.5 C 584.833,220.5 586.5,222.167 586.5,225.5C 584.167,225.5 581.833,225.5 579.5,225.5C 579.392,223.486 580.058,221.82 581.5,220.5 Z"/></g>
<g><path style="opacity:1" fill="#d9dbdd" d="M 802.5,220.5 C 805.833,220.5 807.5,222.167 807.5,225.5C 805.167,225.5 802.833,225.5 800.5,225.5C 800.392,223.486 801.058,221.82 802.5,220.5 Z"/></g>
<g><path style="opacity:1" fill="#d9dbdd" d="M 921.5,220.5 C 924.833,220.5 926.5,222.167 926.5,225.5C 924.167,225.5 921.833,225.5 919.5,225.5C 919.392,223.486 920.058,221.82 921.5,220.5 Z"/></g>
<g><path style="opacity:1" fill="#d4d6d9" d="M 69.5,226.5 C 71.8333,226.5 74.1667,226.5 76.5,226.5C 76.631,231.708 74.2976,233.375 69.5,231.5C 68.3336,229.833 68.3336,228.166 69.5,226.5 Z"/></g>
<g><path style="opacity:1" fill="#d4d6d9" d="M 205.5,226.5 C 207.833,226.5 210.167,226.5 212.5,226.5C 212.631,231.708 210.298,233.375 205.5,231.5C 204.334,229.833 204.334,228.166 205.5,226.5 Z"/></g>
<g><path style="opacity:1" fill="#d4d6d9" d="M 409.5,226.5 C 411.833,226.5 414.167,226.5 416.5,226.5C 416.631,231.708 414.298,233.375 409.5,231.5C 408.334,229.833 408.334,228.166 409.5,226.5 Z"/></g>
<g><path style="opacity:1" fill="#d4d6d9" d="M 545.5,226.5 C 547.833,226.5 550.167,226.5 552.5,226.5C 552.631,231.708 550.298,233.375 545.5,231.5C 544.334,229.833 544.334,228.166 545.5,226.5 Z"/></g>
<g><path style="opacity:1" fill="#d4d6d9" d="M 749.5,226.5 C 751.833,226.5 754.167,226.5 756.5,226.5C 756.631,231.708 754.298,233.375 749.5,231.5C 748.334,229.833 748.334,228.166 749.5,226.5 Z"/></g>
<g><path style="opacity:1" fill="#d4d6d9" d="M 885.5,226.5 C 887.833,226.5 890.167,226.5 892.5,226.5C 892.631,231.708 890.298,233.375 885.5,231.5C 884.334,229.833 884.334,228.166 885.5,226.5 Z"/></g>
<g><path style="opacity:1" fill="#1d344f" d="M 1023.5,292.5 C 1109.5,292.5 1195.5,292.5 1281.5,292.5C 1281.5,340.167 1281.5,387.833 1281.5,435.5C 1195.5,435.5 1109.5,435.5 1023.5,435.5C 1023.5,387.833 1023.5,340.167 1023.5,292.5 Z"/></g>
<g><path style="opacity:1" fill="#e9e9e9" d="M 23.5,295.5 C 107.5,295.5 191.5,295.5 275.5,295.5C 275.5,341.167 275.5,386.833 275.5,432.5C 191.5,432.5 107.5,432.5 23.5,432.5C 23.5,386.833 23.5,341.167 23.5,295.5 Z"/></g>
<g><path style="opacity:1" fill="#e9e9e9" d="M 363.5,295.5 C 447.5,295.5 531.5,295.5 615.5,295.5C 615.5,341.167 615.5,386.833 615.5,432.5C 531.5,432.5 447.5,432.5 363.5,432.5C 363.5,386.833 363.5,341.167 363.5,295.5 Z"/></g>
<g><path style="opacity:1" fill="#e9e9e9" d="M 703.5,295.5 C 787.5,295.5 871.5,295.5 955.5,295.5C 955.5,341.167 955.5,386.833 955.5,432.5C 871.5,432.5 787.5,432.5 703.5,432.5C 703.5,386.833 703.5,341.167 703.5,295.5 Z"/></g>
<g><path style="opacity:1" fill="#e9e9e9" d="M 1026.5,295.5 C 1110.5,295.5 1194.5,295.5 1278.5,295.5C 1278.5,341.167 1278.5,386.833 1278.5,432.5C 1194.5,432.5 1110.5,432.5 1026.5,432.5C 1026.5,386.833 1026.5,341.167 1026.5,295.5 Z"/></g>
<g><path style="opacity:1" fill="#203651" d="M 33.5,353.5 C 41.8102,351.337 45.6435,354.337 45,362.5C 44.6924,363.308 44.1924,363.975 43.5,364.5C 40.9159,365.393 38.2492,365.726 35.5,365.5C 35.8174,368.572 35.4841,371.572 34.5,374.5C 33.503,367.532 33.1697,360.532 33.5,353.5 Z"/></g>
<g><path style="opacity:1" fill="#293e58" d="M 106.5,352.5 C 107.5,352.5 108.5,352.5 109.5,352.5C 109.5,353.5 109.5,354.5 109.5,355.5C 106.433,355.879 105.433,354.879 106.5,352.5 Z"/></g>
<g><path style="opacity:1" fill="#1e3550" d="M 186.5,353.5 C 190.555,353.176 194.555,353.509 198.5,354.5C 195.232,355.487 191.898,355.82 188.5,355.5C 188.5,357.833 188.5,360.167 188.5,362.5C 200.5,363.167 200.5,363.833 188.5,364.5C 188.82,367.898 188.487,371.232 187.5,374.5C 186.503,367.532 186.17,360.532 186.5,353.5 Z"/></g>
<g><path style="opacity:1" fill="#203651" d="M 373.5,353.5 C 381.81,351.337 385.644,354.337 385,362.5C 384.692,363.308 384.192,363.975 383.5,364.5C 380.916,365.393 378.249,365.726 375.5,365.5C 375.817,368.572 375.484,371.572 374.5,374.5C 373.503,367.532 373.17,360.532 373.5,353.5 Z"/></g>
<g><path style="opacity:1" fill="#293e58" d="M 446.5,352.5 C 447.5,352.5 448.5,352.5 449.5,352.5C 449.5,353.5 449.5,354.5 449.5,355.5C 446.433,355.879 445.433,354.879 446.5,352.5 Z"/></g>
<g><path style="opacity:1" fill="#1e3550" d="M 526.5,353.5 C 530.555,353.176 534.555,353.509 538.5,354.5C 535.232,355.487 531.898,355.82 528.5,355.5C 528.5,357.833 528.5,360.167 528.5,362.5C 540.5,363.167 540.5,363.833 528.5,364.5C 528.82,367.898 528.487,371.232 527.5,374.5C 526.503,367.532 526.17,360.532 526.5,353.5 Z"/></g>
<g><path style="opacity:1" fill="#203651" d="M 713.5,353.5 C 721.81,351.337 725.644,354.337 725,362.5C 724.692,363.308 724.192,363.975 723.5,364.5C 720.916,365.393 718.249,365.726 715.5,365.5C 715.817,368.572 715.484,371.572 714.5,374.5C 713.503,367.532 713.17,360.532 713.5,353.5 Z"/></g>
<g><path style="opacity:1" fill="#293e58" d="M 786.5,352.5 C 787.5,352.5 788.5,352.5 789.5,352.5C 789.5,353.5 789.5,354.5 789.5,355.5C 786.433,355.879 785.433,354.879 786.5,352.5 Z"/></g>
<g><path style="opacity:1" fill="#1e3550" d="M 866.5,353.5 C 870.555,353.176 874.555,353.509 878.5,354.5C 875.232,355.487 871.898,355.82 868.5,355.5C 868.5,357.833 868.5,360.167 868.5,362.5C 880.5,363.167 880.5,363.833 868.5,364.5C 868.82,367.898 868.487,371.232 867.5,374.5C 866.503,367.532 866.17,360.532 866.5,353.5 Z"/></g>
<g><path style="opacity:1" fill="#203651" d="M 1036.5,353.5 C 1044.81,351.337 1048.64,354.337 1048,362.5C 1047.69,363.308 1047.19,363.975 1046.5,364.5C 1043.92,365.393 1041.25,365.726 1038.5,365.5C 1038.82,368.572 1038.48,371.572 1037.5,374.5C 1036.5,367.532 1036.17,360.532 1036.5,353.5 Z"/></g>
<g><path style="opacity:1" fill="#293e58" d="M 1109.5,352.5 C 1110.5,352.5 1111.5,352.5 1112.5,352.5C 1112.5,353.5 1112.5,354.5 1112.5,355.5C 1109.43,355.879 1108.43,354.879 1109.5,352.5 Z"/></g>
<g><path style="opacity:1" fill="#1e3550" d="M 1189.5,353.5 C 1193.55,353.176 1197.55,353.509 1201.5,354.5C 1198.23,355.487 1194.9,355.82 1191.5,355.5C 1191.5,357.833 1191.5,360.167 1191.5,362.5C 1203.5,363.167 1203.5,363.833 1191.5,364.5C 1191.82,367.898 1191.49,371.232 1190.5,374.5C 1189.5,367.532 1189.17,360.532 1189.5,353.5 Z"/></g>
<g><path style="opacity:1" fill="#dedfe1" d="M 35.5,355.5 C 37.5273,355.338 39.5273,355.505 41.5,356C 44.1667,358.333 44.1667,360.667 41.5,363C 39.5273,363.495 37.5273,363.662 35.5,363.5C 35.5,360.833 35.5,358.167 35.5,355.5 Z"/></g>
<g><path style="opacity:1" fill="#dedfe1" d="M 375.5,355.5 C 377.527,355.338 379.527,355.505 381.5,356C 384.167,358.333 384.167,360.667 381.5,363C 379.527,363.495 377.527,363.662 375.5,363.5C 375.5,360.833 375.5,358.167 375.5,355.5 Z"/></g>
<g><path style="opacity:1" fill="#dedfe1" d="M 715.5,355.5 C 717.527,355.338 719.527,355.505 721.5,356C 724.167,358.333 724.167,360.667 721.5,363C 719.527,363.495 717.527,363.662 715.5,363.5C 715.5,360.833 715.5,358.167 715.5,355.5 Z"/></g>
<g><path style="opacity:1" fill="#dedfe1" d="M 1038.5,355.5 C 1040.53,355.338 1042.53,355.505 1044.5,356C 1047.17,358.333 1047.17,360.667 1044.5,363C 1042.53,363.495 1040.53,363.662 1038.5,363.5C 1038.5,360.833 1038.5,358.167 1038.5,355.5 Z"/></g>
<g><path style="opacity:1" fill="#33465f" d="M 52.5,358.5 C 52.4326,359.959 52.7659,361.292 53.5,362.5C 53.5,366.5 53.5,370.5 53.5,374.5C 52.5,374.5 51.5,374.5 50.5,374.5C 49.8872,368.729 50.5539,363.396 52.5,358.5 Z"/></g>
<g><path style="opacity:1" fill="#7d8997" d="M 52.5,358.5 C 53.1667,358.833 53.8333,359.167 54.5,359.5C 55.8333,360.167 57.1667,360.833 58.5,361.5C 56.7085,361.366 55.0418,361.699 53.5,362.5C 52.7659,361.292 52.4326,359.959 52.5,358.5 Z"/></g>
<g><path style="opacity:1" fill="#2e425b" d="M 83.5,358.5 C 84.4959,358.414 85.3292,358.748 86,359.5C 87.3333,363.5 88.6667,367.5 90,371.5C 91.3269,367.191 92.4935,362.858 93.5,358.5C 94.675,358.281 95.675,358.614 96.5,359.5C 94.9013,363.796 93.4013,368.129 92,372.5C 90.6667,375.167 89.3333,375.167 88,372.5C 86.389,367.835 84.889,363.168 83.5,358.5 Z"/></g>
<g><path style="opacity:1" fill="#243a54" d="M 102.5,358.5 C 104.833,358.5 107.167,358.5 109.5,358.5C 109.5,363.167 109.5,367.833 109.5,372.5C 110.978,372.238 112.311,372.571 113.5,373.5C 111.5,373.833 109.5,374.167 107.5,374.5C 105.048,374.461 103.048,373.794 101.5,372.5C 103.5,372.5 105.5,372.5 107.5,372.5C 107.5,368.5 107.5,364.5 107.5,360.5C 105.219,360.923 103.552,360.256 102.5,358.5 Z"/></g>
<g><path style="opacity:1" fill="#253a54" d="M 135.5,358.5 C 137.268,362.044 138.102,366.044 138,370.5C 140,373.167 142,373.167 144,370.5C 144.173,366.459 144.673,362.459 145.5,358.5C 146.661,362.795 146.828,367.129 146,371.5C 142.996,375 139.663,375.333 136,372.5C 135.501,367.845 135.334,363.179 135.5,358.5 Z"/></g>
<g><path style="opacity:1" fill="#33465f" d="M 205.5,358.5 C 205.433,359.959 205.766,361.292 206.5,362.5C 206.5,366.5 206.5,370.5 206.5,374.5C 205.5,374.5 204.5,374.5 203.5,374.5C 202.887,368.729 203.554,363.396 205.5,358.5 Z"/></g>
<g><path style="opacity:1" fill="#7d8997" d="M 205.5,358.5 C 206.167,358.833 206.833,359.167 207.5,359.5C 208.833,360.167 210.167,360.833 211.5,361.5C 209.708,361.366 208.042,361.699 206.5,362.5C 205.766,361.292 205.433,359.959 205.5,358.5 Z"/></g>
<g><path style="opacity:1" fill="#33465f" d="M 392.5,358.5 C 392.433,359.959 392.766,361.292 393.5,362.5C 393.5,366.5 393.5,370.5 393.5,374.5C 392.5,374.5 391.5,374.5 390.5,374.5C 389.887,368.729 390.554,363.396 392.5,358.5 Z"/></g>
<g><path style="opacity:1" fill="#7d8997" d="M 392.5,358.5 C 393.167,358.833 393.833,359.167 394.5,359.5C 395.833,360.167 397.167,360.833 398.5,361.5C 396.708,361.366 395.042,361.699 393.5,362.5C 392.766,361.292 392.433,359.959 392.5,358.5 Z"/></g>
<g><path style="opacity:1" fill="#2e425b" d="M 423.5,358.5 C 424.496,358.414 425.329,358.748 426,359.5C 427.333,363.5 428.667,367.5 430,371.5C 431.327,367.191 432.494,362.858 433.5,358.5C 434.675,358.281 435.675,358.614 436.5,359.5C 434.901,363.796 433.401,368.129 432,372.5C 430.667,375.167 429.333,375.167 428,372.5C 426.389,367.835 424.889,363.168 423.5,358.5 Z"/></g>
<g><path style="opacity:1" fill="#243a54" d="M 442.5,358.5 C 444.833,358.5 447.167,358.5 449.5,358.5C 449.5,363.167 449.5,367.833 449.5,372.5C 450.978,372.238 452.311,372.571 453.5,373.5C 451.5,373.833 449.5,374.167 447.5,374.5C 445.048,374.461 443.048,373.794 441.5,372.5C 443.5,372.5 445.5,372.5 447.5,372.5C 447.5,368.5 447.5,364.5 447.5,360.5C 445.219,360.923 443.552,360.256 442.5,358.5 Z"/></g>
<g><path style="opacity:1" fill="#253a54" d="M 475.5,358.5 C 477.268,362.044 478.102,366.044 478,370.5C 480,373.167 482,373.167 484,370.5C 484.173,366.459 484.673,362.459 485.5,358.5C 486.661,362.795 486.828,367.129 486,371.5C 482.996,375 479.663,375.333 476,372.5C 475.501,367.845 475.334,363.179 475.5,358.5 Z"/></g>
<g><path style="opacity:1" fill="#33465f" d="M 545.5,358.5 C 545.433,359.959 545.766,361.292 546.5,362.5C 546.5,366.5 546.5,370.5 546.5,374.5C 545.5,374.5 544.5,374.5 543.5,374.5C 542.887,368.729 543.554,363.396 545.5,358.5 Z"/></g>
<g><path style="opacity:1" fill="#7d8997" d="M 545.5,358.5 C 546.167,358.833 546.833,359.167 547.5,359.5C 548.833,360.167 550.167,360.833 551.5,361.5C 549.708,361.366 548.042,361.699 546.5,362.5C 545.766,361.292 545.433,359.959 545.5,358.5 Z"/></g>
<g><path style="opacity:1" fill="#33465f" d="M 732.5,358.5 C 732.433,359.959 732.766,361.292 733.5,362.5C 733.5,366.5 733.5,370.5 733.5,374.5C 732.5,374.5 731.5,374.5 730.5,374.5C 729.887,368.729 730.554,363.396 732.5,358.5 Z"/></g>
<g><path style="opacity:1" fill="#7d8997" d="M 732.5,358.5 C 733.167,358.833 733.833,359.167 734.5,359.5C 735.833,360.167 737.167,360.833 738.5,361.5C 736.708,361.366 735.042,361.699 733.5,362.5C 732.766,361.292 732.433,359.959 732.5,358.5 Z"/></g>
<g><path style="opacity:1" fill="#2e425b" d="M 763.5,358.5 C 764.496,358.414 765.329,358.748 766,359.5C 767.333,363.5 768.667,367.5 770,371.5C 771.327,367.191 772.494,362.858 773.5,358.5C 774.675,358.281 775.675,358.614 776.5,359.5C 774.901,363.796 773.401,368.129 772,372.5C 770.667,375.167 769.333,375.167 768,372.5C 766.389,367.835 764.889,363.168 763.5,358.5 Z"/></g>
<g><path style="opacity:1" fill="#243a54" d="M 782.5,358.5 C 784.833,358.5 787.167,358.5 789.5,358.5C 789.5,363.167 789.5,367.833 789.5,372.5C 790.978,372.238 792.311,372.571 793.5,373.5C 791.5,373.833 789.5,374.167 787.5,374.5C 785.048,374.461 783.048,373.794 781.5,372.5C 783.5,372.5 785.5,372.5 787.5,372.5C 787.5,368.5 787.5,364.5 787.5,360.5C 785.219,360.923 783.552,360.256 782.5,358.5 Z"/></g>
<g><path style="opacity:1" fill="#253a54" d="M 815.5,358.5 C 817.268,362.044 818.102,366.044 818,370.5C 820,373.167 822,373.167 824,370.5C 824.173,366.459 824.673,362.459 825.5,358.5C 826.661,362.795 826.828,367.129 826,371.5C 822.996,375 819.663,375.333 816,372.5C 815.501,367.845 815.334,363.179 815.5,358.5 Z"/></g>
<g><path style="opacity:1" fill="#33465f" d="M 885.5,358.5 C 885.433,359.959 885.766,361.292 886.5,362.5C 886.5,366.5 886.5,370.5 886.5,374.5C 885.5,374.5 884.5,374.5 883.5,374.5C 882.887,368.729 883.554,363.396 885.5,358.5 Z"/></g>
<g><path style="opacity:1" fill="#7d8997" d="M 885.5,358.5 C 886.167,358.833 886.833,359.167 887.5,359.5C 888.833,360.167 890.167,360.833 891.5,361.5C 889.708,361.366 888.042,361.699 886.5,362.5C 885.766,361.292 885.433,359.959 885.5,358.5 Z"/></g>
<g><path style="opacity:1" fill="#33465f" d="M 1055.5,358.5 C 1055.43,359.959 1055.77,361.292 1056.5,362.5C 1056.5,366.5 1056.5,370.5 1056.5,374.5C 1055.5,374.5 1054.5,374.5 1053.5,374.5C 1052.89,368.729 1053.55,363.396 1055.5,358.5 Z"/></g>
<g><path style="opacity:1" fill="#7d8997" d="M 1055.5,358.5 C 1056.17,358.833 1056.83,359.167 1057.5,359.5C 1058.83,360.167 1060.17,360.833 1061.5,361.5C 1059.71,361.366 1058.04,361.699 1056.5,362.5C 1055.77,361.292 1055.43,359.959 1055.5,358.5 Z"/></g>
<g><path style="opacity:1" fill="#2e425b" d="M 1086.5,358.5 C 1087.5,358.414 1088.33,358.748 1089,359.5C 1090.33,363.5 1091.67,367.5 1093,371.5C 1094.33,367.191 1095.49,362.858 1096.5,358.5C 1097.68,358.281 1098.68,358.614 1099.5,359.5C 1097.9,363.796 1096.4,368.129 1095,372.5C 1093.67,375.167 1092.33,375.167 1091,372.5C 1089.39,367.835 1087.89,363.168 1086.5,358.5 Z"/></g>
<g><path style="opacity:1" fill="#243a54" d="M 1105.5,358.5 C 1107.83,358.5 1110.17,358.5 1112.5,358.5C 1112.5,363.167 1112.5,367.833 1112.5,372.5C 1113.98,372.238 1115.31,372.571 1116.5,373.5C 1114.5,373.833 1112.5,374.167 1110.5,374.5C 1108.05,374.461 1106.05,373.794 1104.5,372.5C 1106.5,372.5 1108.5,372.5 1110.5,372.5C 1110.5,368.5 1110.5,364.5 1110.5,360.5C 1108.22,360.923 1106.55,360.256 1105.5,358.5 Z"/></g>
<g><path style="opacity:1" fill="#253a54" d="M 1138.5,358.5 C 1140.27,362.044 1141.1,366.044 1141,370.5C 1143,373.167 1145,373.167 1147,370.5C 1147.17,366.459 1147.67,362.459 1148.5,358.5C 1149.66,362.795 1149.83,367.129 1149,371.5C 1146,375 1142.66,375.333 1139,372.5C 1138.5,367.845 1138.33,363.179 1138.5,358.5 Z"/></g>
<g><path style="opacity:1" fill="#33465f" d="M 1208.5,358.5 C 1208.43,359.959 1208.77,361.292 1209.5,362.5C 1209.5,366.5 1209.5,370.5 1209.5,374.5C 1208.5,374.5 1207.5,374.5 1206.5,374.5C 1205.89,368.729 1206.55,363.396 1208.5,358.5 Z"/></g>
<g><path style="opacity:1" fill="#7d8997" d="M 1208.5,358.5 C 1209.17,358.833 1209.83,359.167 1210.5,359.5C 1211.83,360.167 1213.17,360.833 1214.5,361.5C 1212.71,361.366 1211.04,361.699 1209.5,362.5C 1208.77,361.292 1208.43,359.959 1208.5,358.5 Z"/></g>
<g><path style="opacity:1" fill="#2c405a" d="M 58.5,361.5 C 57.1667,360.833 55.8333,360.167 54.5,359.5C 60.4653,357.623 62.7986,359.623 61.5,365.5C 60.8503,363.816 59.8503,362.483 58.5,361.5 Z"/></g>
<g><path style="opacity:1" fill="#32455e" d="M 69.5,358.5 C 76.633,357.387 79.9664,360.387 79.5,367.5C 76.1667,367.5 72.8333,367.5 69.5,367.5C 70.4766,372.749 73.1433,373.749 77.5,370.5C 77.8333,370.833 78.1667,371.167 78.5,371.5C 75.2846,374.953 71.7846,375.287 68,372.5C 65.6216,367.406 66.1216,362.739 69.5,358.5 Z"/></g>
<g><path style="opacity:1" fill="#364961" d="M 120.5,358.5 C 129.105,358.008 132.272,362.008 130,370.5C 127.839,374.124 124.672,375.291 120.5,374C 116.541,368.835 116.541,363.668 120.5,358.5 Z"/></g>
<g><path style="opacity:1" fill="#2c405a" d="M 211.5,361.5 C 210.167,360.833 208.833,360.167 207.5,359.5C 213.465,357.623 215.799,359.623 214.5,365.5C 213.85,363.816 212.85,362.483 211.5,361.5 Z"/></g>
<g><path style="opacity:1" fill="#2a3e58" d="M 222.5,358.5 C 229.809,357.306 232.809,360.306 231.5,367.5C 231.167,369.833 230.833,372.167 230.5,374.5C 229.808,373.975 229.308,373.308 229,372.5C 221.946,376.438 218.946,374.438 220,366.5C 222.826,364.66 225.993,363.994 229.5,364.5C 229.64,362.876 228.973,361.71 227.5,361C 224.696,360.871 222.03,361.204 219.5,362C 220.71,360.961 221.71,359.794 222.5,358.5 Z"/></g>
<g><path style="opacity:1" fill="#243954" d="M 244.5,360.5 C 245.585,358.418 247.085,358.084 249,359.5C 249.829,364.533 249.662,369.533 248.5,374.5C 247.672,370.204 247.172,365.871 247,361.5C 246.329,360.748 245.496,360.414 244.5,360.5 Z"/></g>
<g><path style="opacity:1" fill="#32455e" d="M 256.5,358.5 C 263.633,357.387 266.966,360.387 266.5,367.5C 263.167,367.5 259.833,367.5 256.5,367.5C 257.477,372.749 260.143,373.749 264.5,370.5C 264.833,370.833 265.167,371.167 265.5,371.5C 262.285,374.953 258.785,375.287 255,372.5C 252.622,367.406 253.122,362.739 256.5,358.5 Z"/></g>
<g><path style="opacity:1" fill="#2c405a" d="M 398.5,361.5 C 397.167,360.833 395.833,360.167 394.5,359.5C 400.465,357.623 402.799,359.623 401.5,365.5C 400.85,363.816 399.85,362.483 398.5,361.5 Z"/></g>
<g><path style="opacity:1" fill="#32455e" d="M 409.5,358.5 C 416.633,357.387 419.966,360.387 419.5,367.5C 416.167,367.5 412.833,367.5 409.5,367.5C 410.477,372.749 413.143,373.749 417.5,370.5C 417.833,370.833 418.167,371.167 418.5,371.5C 415.285,374.953 411.785,375.287 408,372.5C 405.622,367.406 406.122,362.739 409.5,358.5 Z"/></g>
<g><path style="opacity:1" fill="#364961" d="M 460.5,358.5 C 469.105,358.008 472.272,362.008 470,370.5C 467.839,374.124 464.672,375.291 460.5,374C 456.541,368.835 456.541,363.668 460.5,358.5 Z"/></g>
<g><path style="opacity:1" fill="#2c405a" d="M 551.5,361.5 C 550.167,360.833 548.833,360.167 547.5,359.5C 553.465,357.623 555.799,359.623 554.5,365.5C 553.85,363.816 552.85,362.483 551.5,361.5 Z"/></g>
<g><path style="opacity:1" fill="#2a3e58" d="M 562.5,358.5 C 569.809,357.306 572.809,360.306 571.5,367.5C 571.167,369.833 570.833,372.167 570.5,374.5C 569.808,373.975 569.308,373.308 569,372.5C 561.946,376.438 558.946,374.438 560,366.5C 562.826,364.66 565.993,363.994 569.5,364.5C 569.64,362.876 568.973,361.71 567.5,361C 564.696,360.871 562.03,361.204 559.5,362C 560.71,360.961 561.71,359.794 562.5,358.5 Z"/></g>
<g><path style="opacity:1" fill="#243954" d="M 584.5,360.5 C 585.585,358.418 587.085,358.084 589,359.5C 589.829,364.533 589.662,369.533 588.5,374.5C 587.672,370.204 587.172,365.871 587,361.5C 586.329,360.748 585.496,360.414 584.5,360.5 Z"/></g>
<g><path style="opacity:1" fill="#32455e" d="M 596.5,358.5 C 603.633,357.387 606.966,360.387 606.5,367.5C 603.167,367.5 599.833,367.5 596.5,367.5C 597.477,372.749 600.143,373.749 604.5,370.5C 604.833,370.833 605.167,371.167 605.5,371.5C 602.285,374.953 598.785,375.287 595,372.5C 592.622,367.406 593.122,362.739 596.5,358.5 Z"/></g>
<g><path style="opacity:1" fill="#2c405a" d="M 738.5,361.5 C 737.167,360.833 735.833,360.167 734.5,359.5C 740.465,357.623 742.799,359.623 741.5,365.5C 740.85,363.816 739.85,362.483 738.5,361.5 Z"/></g>
<g><path style="opacity:1" fill="#32455e" d="M 749.5,358.5 C 756.633,357.387 759.966,360.387 759.5,367.5C 756.167,367.5 752.833,367.5 749.5,367.5C 750.477,372.749 753.143,373.749 757.5,370.5C 757.833,370.833 758.167,371.167 758.5,371.5C 755.285,374.953 751.785,375.287 748,372.5C 745.622,367.406 746.122,362.739 749.5,358.5 Z"/></g>
<g><path style="opacity:1" fill="#364961" d="M 800.5,358.5 C 809.105,358.008 812.272,362.008 810,370.5C 807.839,374.124 804.672,375.291 800.5,374C 796.541,368.835 796.541,363.668 800.5,358.5 Z"/></g>
<g><path style="opacity:1" fill="#2c405a" d="M 891.5,361.5 C 890.167,360.833 888.833,360.167 887.5,359.5C 893.465,357.623 895.799,359.623 894.5,365.5C 893.85,363.816 892.85,362.483 891.5,361.5 Z"/></g>
<g><path style="opacity:1" fill="#2a3e58" d="M 902.5,358.5 C 909.809,357.306 912.809,360.306 911.5,367.5C 911.167,369.833 910.833,372.167 910.5,374.5C 909.808,373.975 909.308,373.308 909,372.5C 901.946,376.438 898.946,374.438 900,366.5C 902.826,364.66 905.993,363.994 909.5,364.5C 909.64,362.876 908.973,361.71 907.5,361C 904.696,360.871 902.03,361.204 899.5,362C 900.71,360.961 901.71,359.794 902.5,358.5 Z"/></g>
<g><path style="opacity:1" fill="#243954" d="M 924.5,360.5 C 925.585,358.418 927.085,358.084 929,359.5C 929.829,364.533 929.662,369.533 928.5,374.5C 927.672,370.204 927.172,365.871 927,361.5C 926.329,360.748 925.496,360.414 924.5,360.5 Z"/></g>
<g><path style="opacity:1" fill="#32455e" d="M 936.5,358.5 C 943.633,357.387 946.966,360.387 946.5,367.5C 943.167,367.5 939.833,367.5 936.5,367.5C 937.477,372.749 940.143,373.749 944.5,370.5C 944.833,370.833 945.167,371.167 945.5,371.5C 942.285,374.953 938.785,375.287 935,372.5C 932.622,367.406 933.122,362.739 936.5,358.5 Z"/></g>
<g><path style="opacity:1" fill="#2c405a" d="M 1061.5,361.5 C 1060.17,360.833 1058.83,360.167 1057.5,359.5C 1063.47,357.623 1065.8,359.623 1064.5,365.5C 1063.85,363.816 1062.85,362.483 1061.5,361.5 Z"/></g>
<g><path style="opacity:1" fill="#32455e" d="M 1072.5,358.5 C 1079.63,357.387 1082.97,360.387 1082.5,367.5C 1079.17,367.5 1075.83,367.5 1072.5,367.5C 1073.48,372.749 1076.14,373.749 1080.5,370.5C 1080.83,370.833 1081.17,371.167 1081.5,371.5C 1078.28,374.953 1074.78,375.287 1071,372.5C 1068.62,367.406 1069.12,362.739 1072.5,358.5 Z"/></g>
<g><path style="opacity:1" fill="#364961" d="M 1123.5,358.5 C 1132.11,358.008 1135.27,362.008 1133,370.5C 1130.84,374.124 1127.67,375.291 1123.5,374C 1119.54,368.835 1119.54,363.668 1123.5,358.5 Z"/></g>
<g><path style="opacity:1" fill="#2c405a" d="M 1214.5,361.5 C 1213.17,360.833 1211.83,360.167 1210.5,359.5C 1216.47,357.623 1218.8,359.623 1217.5,365.5C 1216.85,363.816 1215.85,362.483 1214.5,361.5 Z"/></g>
<g><path style="opacity:1" fill="#2a3e58" d="M 1225.5,358.5 C 1232.81,357.306 1235.81,360.306 1234.5,367.5C 1234.17,369.833 1233.83,372.167 1233.5,374.5C 1232.81,373.975 1232.31,373.308 1232,372.5C 1224.95,376.438 1221.95,374.438 1223,366.5C 1225.83,364.66 1228.99,363.994 1232.5,364.5C 1232.64,362.876 1231.97,361.71 1230.5,361C 1227.7,360.871 1225.03,361.204 1222.5,362C 1223.71,360.961 1224.71,359.794 1225.5,358.5 Z"/></g>
<g><path style="opacity:1" fill="#243954" d="M 1247.5,360.5 C 1248.58,358.418 1250.08,358.084 1252,359.5C 1252.83,364.533 1252.66,369.533 1251.5,374.5C 1250.67,370.204 1250.17,365.871 1250,361.5C 1249.33,360.748 1248.5,360.414 1247.5,360.5 Z"/></g>
<g><path style="opacity:1" fill="#32455e" d="M 1259.5,358.5 C 1266.63,357.387 1269.97,360.387 1269.5,367.5C 1266.17,367.5 1262.83,367.5 1259.5,367.5C 1260.48,372.749 1263.14,373.749 1267.5,370.5C 1267.83,370.833 1268.17,371.167 1268.5,371.5C 1265.28,374.953 1261.78,375.287 1258,372.5C 1255.62,367.406 1256.12,362.739 1259.5,358.5 Z"/></g>
<g><path style="opacity:1" fill="#273c56" d="M 154.5,358.5 C 158.122,357.924 161.122,358.924 163.5,361.5C 163.167,361.833 162.833,362.167 162.5,362.5C 159.448,359.689 156.781,359.856 154.5,363C 154.645,363.772 154.978,364.439 155.5,365C 162.965,364.759 164.965,367.759 161.5,374C 157.416,375.282 154.082,374.282 151.5,371C 153.757,370.888 155.924,371.388 158,372.5C 159.971,372.719 161.138,371.885 161.5,370C 158.829,368.257 155.996,366.757 153,365.5C 152.167,362.829 152.667,360.496 154.5,358.5 Z"/></g>
<g><path style="opacity:1" fill="#394c63" d="M 244.5,360.5 C 244.5,365.167 244.5,369.833 244.5,374.5C 243.5,374.5 242.5,374.5 241.5,374.5C 241.827,369.786 241.493,365.12 240.5,360.5C 239.914,360.709 239.414,361.043 239,361.5C 238.828,365.871 238.328,370.204 237.5,374.5C 236.167,369.167 236.167,363.833 237.5,358.5C 240.028,357.89 242.361,358.557 244.5,360.5 Z"/></g>
<g><path style="opacity:1" fill="#273c56" d="M 494.5,358.5 C 498.122,357.924 501.122,358.924 503.5,361.5C 503.167,361.833 502.833,362.167 502.5,362.5C 499.448,359.689 496.781,359.856 494.5,363C 494.645,363.772 494.978,364.439 495.5,365C 502.965,364.759 504.965,367.759 501.5,374C 497.416,375.282 494.082,374.282 491.5,371C 493.757,370.888 495.924,371.388 498,372.5C 499.971,372.719 501.138,371.885 501.5,370C 498.829,368.257 495.996,366.757 493,365.5C 492.167,362.829 492.667,360.496 494.5,358.5 Z"/></g>
<g><path style="opacity:1" fill="#394c63" d="M 584.5,360.5 C 584.5,365.167 584.5,369.833 584.5,374.5C 583.5,374.5 582.5,374.5 581.5,374.5C 581.827,369.786 581.493,365.12 580.5,360.5C 579.914,360.709 579.414,361.043 579,361.5C 578.828,365.871 578.328,370.204 577.5,374.5C 576.167,369.167 576.167,363.833 577.5,358.5C 580.028,357.89 582.361,358.557 584.5,360.5 Z"/></g>
<g><path style="opacity:1" fill="#273c56" d="M 834.5,358.5 C 838.122,357.924 841.122,358.924 843.5,361.5C 843.167,361.833 842.833,362.167 842.5,362.5C 839.448,359.689 836.781,359.856 834.5,363C 834.645,363.772 834.978,364.439 835.5,365C 842.965,364.759 844.965,367.759 841.5,374C 837.416,375.282 834.082,374.282 831.5,371C 833.757,370.888 835.924,371.388 838,372.5C 839.971,372.719 841.138,371.885 841.5,370C 838.829,368.257 835.996,366.757 833,365.5C 832.167,362.829 832.667,360.496 834.5,358.5 Z"/></g>
<g><path style="opacity:1" fill="#394c63" d="M 924.5,360.5 C 924.5,365.167 924.5,369.833 924.5,374.5C 923.5,374.5 922.5,374.5 921.5,374.5C 921.827,369.786 921.493,365.12 920.5,360.5C 919.914,360.709 919.414,361.043 919,361.5C 918.828,365.871 918.328,370.204 917.5,374.5C 916.167,369.167 916.167,363.833 917.5,358.5C 920.028,357.89 922.361,358.557 924.5,360.5 Z"/></g>
<g><path style="opacity:1" fill="#273c56" d="M 1157.5,358.5 C 1161.12,357.924 1164.12,358.924 1166.5,361.5C 1166.17,361.833 1165.83,362.167 1165.5,362.5C 1162.45,359.689 1159.78,359.856 1157.5,363C 1157.64,363.772 1157.98,364.439 1158.5,365C 1165.97,364.759 1167.97,367.759 1164.5,374C 1160.42,375.282 1157.08,374.282 1154.5,371C 1156.76,370.888 1158.92,371.388 1161,372.5C 1162.97,372.719 1164.14,371.885 1164.5,370C 1161.83,368.257 1159,366.757 1156,365.5C 1155.17,362.829 1155.67,360.496 1157.5,358.5 Z"/></g>
<g><path style="opacity:1" fill="#394c63" d="M 1247.5,360.5 C 1247.5,365.167 1247.5,369.833 1247.5,374.5C 1246.5,374.5 1245.5,374.5 1244.5,374.5C 1244.83,369.786 1244.49,365.12 1243.5,360.5C 1242.91,360.709 1242.41,361.043 1242,361.5C 1241.83,365.871 1241.33,370.204 1240.5,374.5C 1239.17,369.167 1239.17,363.833 1240.5,358.5C 1243.03,357.89 1245.36,358.557 1247.5,360.5 Z"/></g>
<g><path style="opacity:1" fill="#d9dbdd" d="M 71.5,360.5 C 74.8333,360.5 76.5,362.167 76.5,365.5C 74.1667,365.5 71.8333,365.5 69.5,365.5C 69.3915,363.486 70.0582,361.82 71.5,360.5 Z"/></g>
<g><path style="opacity:1" fill="#6f7d8d" d="M 102.5,358.5 C 103.552,360.256 105.219,360.923 107.5,360.5C 107.5,364.5 107.5,368.5 107.5,372.5C 105.5,372.5 103.5,372.5 101.5,372.5C 102.919,371.549 104.585,371.216 106.5,371.5C 106.5,368.167 106.5,364.833 106.5,361.5C 104.833,361.5 103.167,361.5 101.5,361.5C 101.263,360.209 101.596,359.209 102.5,358.5 Z"/></g>
<g><path style="opacity:1" fill="#e1e2e3" d="M 122.5,360.5 C 124.39,360.297 125.89,360.963 127,362.5C 127.667,365.167 127.667,367.833 127,370.5C 125,373.167 123,373.167 121,370.5C 120.037,366.851 120.537,363.518 122.5,360.5 Z"/></g>
<g><path style="opacity:1" fill="#d9dbdd" d="M 258.5,360.5 C 261.833,360.5 263.5,362.167 263.5,365.5C 261.167,365.5 258.833,365.5 256.5,365.5C 256.392,363.486 257.058,361.82 258.5,360.5 Z"/></g>
<g><path style="opacity:1" fill="#d9dbdd" d="M 411.5,360.5 C 414.833,360.5 416.5,362.167 416.5,365.5C 414.167,365.5 411.833,365.5 409.5,365.5C 409.392,363.486 410.058,361.82 411.5,360.5 Z"/></g>
<g><path style="opacity:1" fill="#6f7d8d" d="M 442.5,358.5 C 443.552,360.256 445.219,360.923 447.5,360.5C 447.5,364.5 447.5,368.5 447.5,372.5C 445.5,372.5 443.5,372.5 441.5,372.5C 442.919,371.549 444.585,371.216 446.5,371.5C 446.5,368.167 446.5,364.833 446.5,361.5C 444.833,361.5 443.167,361.5 441.5,361.5C 441.263,360.209 441.596,359.209 442.5,358.5 Z"/></g>
<g><path style="opacity:1" fill="#e1e2e3" d="M 462.5,360.5 C 464.39,360.297 465.89,360.963 467,362.5C 467.667,365.167 467.667,367.833 467,370.5C 465,373.167 463,373.167 461,370.5C 460.037,366.851 460.537,363.518 462.5,360.5 Z"/></g>
<g><path style="opacity:1" fill="#d9dbdd" d="M 598.5,360.5 C 601.833,360.5 603.5,362.167 603.5,365.5C 601.167,365.5 598.833,365.5 596.5,365.5C 596.392,363.486 597.058,361.82 598.5,360.5 Z"/></g>
<g><path style="opacity:1" fill="#d9dbdd" d="M 751.5,360.5 C 754.833,360.5 756.5,362.167 756.5,365.5C 754.167,365.5 751.833,365.5 749.5,365.5C 749.392,363.486 750.058,361.82 751.5,360.5 Z"/></g>
<g><path style="opacity:1" fill="#6f7d8d" d="M 782.5,358.5 C 783.552,360.256 785.219,360.923 787.5,360.5C 787.5,364.5 787.5,368.5 787.5,372.5C 785.5,372.5 783.5,372.5 781.5,372.5C 782.919,371.549 784.585,371.216 786.5,371.5C 786.5,368.167 786.5,364.833 786.5,361.5C 784.833,361.5 783.167,361.5 781.5,361.5C 781.263,360.209 781.596,359.209 782.5,358.5 Z"/></g>
<g><path style="opacity:1" fill="#e1e2e3" d="M 802.5,360.5 C 804.39,360.297 805.89,360.963 807,362.5C 807.667,365.167 807.667,367.833 807,370.5C 805,373.167 803,373.167 801,370.5C 800.037,366.851 800.537,363.518 802.5,360.5 Z"/></g>
<g><path style="opacity:1" fill="#d9dbdd" d="M 938.5,360.5 C 941.833,360.5 943.5,362.167 943.5,365.5C 941.167,365.5 938.833,365.5 936.5,365.5C 936.392,363.486 937.058,361.82 938.5,360.5 Z"/></g>
<g><path style="opacity:1" fill="#d9dbdd" d="M 1074.5,360.5 C 1077.83,360.5 1079.5,362.167 1079.5,365.5C 1077.17,365.5 1074.83,365.5 1072.5,365.5C 1072.39,363.486 1073.06,361.82 1074.5,360.5 Z"/></g>
<g><path style="opacity:1" fill="#6f7d8d" d="M 1105.5,358.5 C 1106.55,360.256 1108.22,360.923 1110.5,360.5C 1110.5,364.5 1110.5,368.5 1110.5,372.5C 1108.5,372.5 1106.5,372.5 1104.5,372.5C 1105.92,371.549 1107.59,371.216 1109.5,371.5C 1109.5,368.167 1109.5,364.833 1109.5,361.5C 1107.83,361.5 1106.17,361.5 1104.5,361.5C 1104.26,360.209 1104.6,359.209 1105.5,358.5 Z"/></g>
<g><path style="opacity:1" fill="#e1e2e3" d="M 1125.5,360.5 C 1127.39,360.297 1128.89,360.963 1130,362.5C 1130.67,365.167 1130.67,367.833 1130,370.5C 1128,373.167 1126,373.167 1124,370.5C 1123.04,366.851 1123.54,363.518 1125.5,360.5 Z"/></g>
<g><path style="opacity:1" fill="#d9dbdd" d="M 1261.5,360.5 C 1264.83,360.5 1266.5,362.167 1266.5,365.5C 1264.17,365.5 1261.83,365.5 1259.5,365.5C 1259.39,363.486 1260.06,361.82 1261.5,360.5 Z"/></g>
<g><path style="opacity:1" fill="#d4d6d9" d="M 222.5,366.5 C 224.833,366.5 227.167,366.5 229.5,366.5C 229.631,371.708 227.298,373.375 222.5,371.5C 221.334,369.833 221.334,368.166 222.5,366.5 Z"/></g>
<g><path style="opacity:1" fill="#d4d6d9" d="M 562.5,366.5 C 564.833,366.5 567.167,366.5 569.5,366.5C 569.631,371.708 567.298,373.375 562.5,371.5C 561.334,369.833 561.334,368.166 562.5,366.5 Z"/></g>
<g><path style="opacity:1" fill="#d4d6d9" d="M 902.5,366.5 C 904.833,366.5 907.167,366.5 909.5,366.5C 909.631,371.708 907.298,373.375 902.5,371.5C 901.334,369.833 901.334,368.166 902.5,366.5 Z"/></g>
<g><path style="opacity:1" fill="#d4d6d9" d="M 1225.5,366.5 C 1227.83,366.5 1230.17,366.5 1232.5,366.5C 1232.63,371.708 1230.3,373.375 1225.5,371.5C 1224.33,369.833 1224.33,368.166 1225.5,366.5 Z"/></g>
</svg>
